<svg width="24" height="24" viewBox="0 0 24 24" fill="none" xmlns="http://www.w3.org/2000/svg">
<path opacity="0.3" fill-rule="evenodd" clip-rule="evenodd" d="M4.22183 14.1209C3.44078 14.902 3.44078 16.1683 4.22183 16.9494L7.05026 19.7778C7.83131 20.5588 9.09764 20.5588 9.87868 19.7778L12.7071 16.9494C13.4882 16.1683 13.4882 14.902 12.7071 14.1209L12 13.4138L9.87868 15.5352C9.48816 15.9257 8.855 15.9257 8.46447 15.5352C8.07395 15.1446 8.07395 14.5115 8.46447 14.1209L10.5858 11.9996L9.87868 11.2925C9.09764 10.5115 7.83131 10.5115 7.05026 11.2925L4.22183 14.1209Z" fill="#99EFD0"/>
<path fill-rule="evenodd" clip-rule="evenodd" d="M11.2931 7.05063C10.5121 7.83168 10.5121 9.09801 11.2931 9.87906L12.0002 10.5862L14.1215 8.46484C14.5121 8.07432 15.1452 8.07432 15.5358 8.46484C15.9263 8.85537 15.9263 9.48853 15.5358 9.87906L13.4144 12.0004L14.1215 12.7075C14.9026 13.4885 16.1689 13.4885 16.95 12.7075L19.7784 9.87906C20.5594 9.09801 20.5594 7.83168 19.7784 7.05063L16.95 4.2222C16.1689 3.44115 14.9026 3.44115 14.1215 4.2222L11.2931 7.05063Z" fill="#99EFD0"/>
</svg>
