<svg width="20" height="18" viewBox="0 0 20 18" fill="none" xmlns="http://www.w3.org/2000/svg">
<path opacity="0.3" fill-rule="evenodd" clip-rule="evenodd" d="M5.25619 15.93L3.97889 17.469C1.47693 15.3925 0 12.3162 0 9.00084C0 5.69006 1.47282 2.6176 3.96885 0.541016L5.24797 2.0785C3.20393 3.77904 2 6.29058 2 9.00084C2 11.7148 3.2073 14.2295 5.25619 15.93ZM14.7438 15.93L16.0211 17.469C18.5231 15.3925 20 12.3162 20 9.00084C20 5.69006 18.5272 2.6176 16.0311 0.541016L14.752 2.0785C16.7961 3.77904 18 6.29058 18 9.00084C18 11.7148 16.7927 14.2295 14.7438 15.93ZM12.1785 12.8607L13.4509 14.4038C15.0529 13.0828 16 11.1182 16 9.00084C16 6.89042 15.0591 4.93158 13.4661 3.61047L12.1894 5.14994C13.329 6.09502 14 7.49205 14 9.00084C14 10.5146 13.3245 11.9157 12.1785 12.8607ZM6.5491 14.4038L7.8215 12.8607C6.6755 11.9157 6 10.5146 6 9.00084C6 7.49205 6.67104 6.09502 7.81062 5.14994L6.53389 3.61047C4.94091 4.93158 4 6.89042 4 9.00084C4 11.1182 4.94714 13.0828 6.5491 14.4038Z" fill="#99EFD0"/>
</svg>
