<svg width="1440" height="572" viewBox="0 0 1440 572" fill="none" xmlns="http://www.w3.org/2000/svg">
<g opacity="0.1" clip-path="url(#clip0_636_6838)">
<path d="M176.178 338.14C176.178 335.915 177.982 334.111 180.207 334.111C182.431 334.111 184.235 335.915 184.235 338.14C184.235 340.364 182.431 342.168 180.207 342.168C178.007 342.168 176.178 340.364 176.178 338.14Z" fill="url(#paint0_linear_636_6838)"/>
<path d="M180.899 246.82H179.564V335.791H180.899V246.82Z" fill="url(#paint1_linear_636_6838)"/>
<path d="M-6.55811 228.581C-6.55811 226.357 -4.75397 224.553 -2.5297 224.553C-0.305422 224.553 1.4987 226.357 1.4987 228.581C1.4987 230.805 -0.305422 232.61 -2.5297 232.61C-4.75397 232.61 -6.55811 230.805 -6.55811 228.581Z" fill="url(#paint2_linear_636_6838)"/>
<path d="M43.5127 133.901C43.5127 131.677 45.3168 129.873 47.5411 129.873C49.7654 129.873 51.5695 131.677 51.5695 133.901C51.5695 136.126 49.7654 137.93 47.5411 137.93C45.3168 137.93 43.5127 136.126 43.5127 133.901Z" fill="url(#paint3_linear_636_6838)"/>
<path d="M48.233 42.582H46.8984V131.553H48.233V42.582Z" fill="url(#paint4_linear_636_6838)"/>
<path d="M83.7471 154.339C83.7471 152.115 85.5512 150.311 87.7755 150.311C89.9998 150.311 91.8039 152.115 91.8039 154.339C91.8039 156.563 89.9998 158.367 87.7755 158.367C85.5759 158.392 83.7471 156.588 83.7471 154.339Z" fill="url(#paint5_linear_636_6838)"/>
<path d="M88.4674 63.0449H87.1328V152.041H88.4674V63.0449Z" fill="url(#paint6_linear_636_6838)"/>
<path d="M149.388 384.083C149.388 381.859 151.192 380.055 153.417 380.055C155.641 380.055 157.445 381.859 157.445 384.083C157.445 386.307 155.641 388.112 153.417 388.112C151.192 388.112 149.388 386.307 149.388 384.083Z" fill="url(#paint7_linear_636_6838)"/>
<path d="M154.108 292.764H152.774V381.735H154.108V292.764Z" fill="url(#paint8_linear_636_6838)"/>
<path d="M211.742 124.954C211.742 122.73 213.546 120.926 215.77 120.926C217.994 120.926 219.799 122.73 219.799 124.954C219.799 127.178 217.994 128.983 215.77 128.983C213.546 128.983 211.742 127.178 211.742 124.954Z" fill="url(#paint9_linear_636_6838)"/>
<path d="M216.438 33.6602H215.103V122.631H216.438V33.6602Z" fill="url(#paint10_linear_636_6838)"/>
<path d="M100.553 120.999C100.553 118.775 102.357 116.971 104.581 116.971C106.805 116.971 108.61 118.775 108.61 120.999C108.61 123.223 106.805 125.028 104.581 125.028C102.357 125.028 100.553 123.223 100.553 120.999Z" fill="url(#paint11_linear_636_6838)"/>
<path d="M105.273 74.1914H103.938V118.677H105.273V74.1914Z" fill="url(#paint12_linear_636_6838)"/>
<path d="M252.496 344.663C252.496 342.439 254.3 340.635 256.524 340.635C258.748 340.635 260.552 342.439 260.552 344.663C260.552 346.887 258.748 348.692 256.524 348.692C254.324 348.692 252.496 346.887 252.496 344.663Z" fill="url(#paint13_linear_636_6838)"/>
<path d="M257.216 297.83H255.881V342.316H257.216V297.83Z" fill="url(#paint14_linear_636_6838)"/>
<path d="M20.7261 108.939C20.7261 106.714 22.5302 104.91 24.7545 104.91C26.9787 104.91 28.7829 106.714 28.7829 108.939C28.7829 111.163 26.9787 112.967 24.7545 112.967C22.5302 112.967 20.7261 111.163 20.7261 108.939Z" fill="url(#paint15_linear_636_6838)"/>
<path d="M25.4464 62.1055H24.1118V106.591H25.4464V62.1055Z" fill="url(#paint16_linear_636_6838)"/>
<path d="M150.97 47.3018C150.97 45.0776 152.774 43.2734 154.998 43.2734C157.222 43.2734 159.027 45.0776 159.027 47.3018C159.027 49.5261 157.222 51.3303 154.998 51.3303C152.799 51.355 150.97 49.5261 150.97 47.3018Z" fill="url(#paint17_linear_636_6838)"/>
<path d="M155.69 0.494141H154.355V44.9796H155.69V0.494141Z" fill="url(#paint18_linear_636_6838)"/>
<path d="M94.918 372.862C94.918 370.638 96.7221 368.834 98.9464 368.834C101.171 368.834 102.975 370.638 102.975 372.862C102.975 375.087 101.171 376.891 98.9464 376.891C96.7221 376.891 94.918 375.087 94.918 372.862Z" fill="url(#paint19_linear_636_6838)"/>
<path d="M99.6139 281.543H98.2793V370.539H99.6139V281.543Z" fill="url(#paint20_linear_636_6838)"/>
<path d="M210.852 325.634C210.852 323.41 212.656 321.605 214.88 321.605C217.105 321.605 218.909 323.41 218.909 325.634C218.909 327.858 217.105 329.662 214.88 329.662C212.656 329.687 210.852 327.883 210.852 325.634Z" fill="url(#paint21_linear_636_6838)"/>
<path d="M215.548 234.34H214.213V323.336H215.548V234.34Z" fill="url(#paint22_linear_636_6838)"/>
<path d="M16.6978 549.815C16.6978 547.591 18.5019 545.787 20.7262 545.787C22.9504 545.787 24.7546 547.591 24.7546 549.815C24.7546 552.04 22.9504 553.844 20.7262 553.844C18.5019 553.869 16.6978 552.04 16.6978 549.815Z" fill="url(#paint23_linear_636_6838)"/>
<path d="M21.3936 240.469H20.0591V547.493H21.3936V240.469Z" fill="url(#paint24_linear_636_6838)"/>
<path d="M187.522 374.023C187.522 371.798 189.326 369.994 191.55 369.994C193.775 369.994 195.579 371.798 195.579 374.023C195.579 376.247 193.775 378.051 191.55 378.051C189.326 378.051 187.522 376.247 187.522 374.023Z" fill="url(#paint25_linear_636_6838)"/>
<path d="M192.218 64.6758H190.883V371.7H192.218V64.6758Z" fill="url(#paint26_linear_636_6838)"/>
<path d="M79.002 464.009C79.002 461.785 80.8061 459.98 83.0304 459.98C85.2546 459.98 87.0588 461.785 87.0588 464.009C87.0588 466.233 85.2546 468.037 83.0304 468.037C80.8061 468.062 79.002 466.233 79.002 464.009Z" fill="url(#paint27_linear_636_6838)"/>
<path d="M83.7223 154.686H82.3877V461.71H83.7223V154.686Z" fill="url(#paint28_linear_636_6838)"/>
<path d="M164.291 225.862C164.291 223.638 166.095 221.834 168.319 221.834C170.543 221.834 172.347 223.638 172.347 225.862C172.347 228.087 170.543 229.891 168.319 229.891C166.095 229.916 164.291 228.111 164.291 225.862Z" fill="url(#paint29_linear_636_6838)"/>
<path d="M169.011 53.6797H167.676V223.54H169.011V53.6797Z" fill="url(#paint30_linear_636_6838)"/>
<path d="M1307.77 380.722C1307.77 378.498 1309.58 376.693 1311.8 376.693C1314.03 376.693 1315.83 378.498 1315.83 380.722C1315.83 382.946 1314.03 384.75 1311.8 384.75C1309.58 384.775 1307.77 382.946 1307.77 380.722Z" fill="url(#paint31_linear_636_6838)"/>
<path d="M1312.47 316.365H1311.14V378.422H1312.47V316.365Z" fill="url(#paint32_linear_636_6838)"/>
<path d="M1203.85 290.614C1203.85 288.39 1205.66 286.586 1207.88 286.586C1210.1 286.586 1211.91 288.39 1211.91 290.614C1211.91 292.839 1210.1 294.643 1207.88 294.643C1205.66 294.643 1203.85 292.839 1203.85 290.614Z" fill="url(#paint33_linear_636_6838)"/>
<path d="M1208.55 127.674H1207.21V288.291H1208.55V127.674Z" fill="url(#paint34_linear_636_6838)"/>
<path d="M1157.91 151.745C1157.91 149.521 1159.71 147.717 1161.94 147.717C1164.16 147.717 1165.96 149.521 1165.96 151.745C1165.96 153.969 1164.16 155.774 1161.94 155.774C1159.74 155.798 1157.91 153.994 1157.91 151.745Z" fill="url(#paint35_linear_636_6838)"/>
<path d="M1162.63 60.4512H1161.29V149.447H1162.63V60.4512Z" fill="url(#paint36_linear_636_6838)"/>
<path d="M1282.64 221.884C1282.64 219.66 1284.44 217.855 1286.67 217.855C1288.89 217.855 1290.7 219.66 1290.7 221.884C1290.7 224.108 1288.89 225.912 1286.67 225.912C1284.44 225.937 1282.64 224.108 1282.64 221.884Z" fill="url(#paint37_linear_636_6838)"/>
<path d="M1287.34 130.59H1286V219.586H1287.34V130.59Z" fill="url(#paint38_linear_636_6838)"/>
<path d="M1410.17 228.903C1410.17 226.679 1411.97 224.875 1414.19 224.875C1416.42 224.875 1418.22 226.679 1418.22 228.903C1418.22 231.128 1416.42 232.932 1414.19 232.932C1411.97 232.932 1410.17 231.128 1410.17 228.903Z" fill="url(#paint39_linear_636_6838)"/>
<path d="M1414.89 137.609H1413.55V226.605H1414.89V137.609Z" fill="url(#paint40_linear_636_6838)"/>
<path d="M1270.8 296.273C1270.8 294.048 1272.61 292.244 1274.83 292.244C1277.05 292.244 1278.86 294.048 1278.86 296.273C1278.86 298.497 1277.05 300.301 1274.83 300.301C1272.61 300.326 1270.8 298.497 1270.8 296.273Z" fill="url(#paint41_linear_636_6838)"/>
<path d="M1275.52 127.055H1274.19V293.949H1275.52V127.055Z" fill="url(#paint42_linear_636_6838)"/>
<path d="M1294.26 265.677C1294.26 263.453 1296.06 261.648 1298.28 261.648C1300.51 261.648 1302.31 263.453 1302.31 265.677C1302.31 267.901 1300.51 269.705 1298.28 269.705C1296.06 269.705 1294.26 267.901 1294.26 265.677Z" fill="url(#paint43_linear_636_6838)"/>
<path d="M1298.98 130.119H1297.64V263.353H1298.98V130.119Z" fill="url(#paint44_linear_636_6838)"/>
<path d="M1236.77 442.655C1236.77 440.431 1238.58 438.627 1240.8 438.627C1243.02 438.627 1244.83 440.431 1244.83 442.655C1244.83 444.88 1243.02 446.684 1240.8 446.684C1238.6 446.684 1236.77 444.88 1236.77 442.655Z" fill="url(#paint45_linear_636_6838)"/>
<path d="M1241.49 133.309H1240.16V440.333H1241.49V133.309Z" fill="url(#paint46_linear_636_6838)"/>
<path d="M1354.29 309.347C1354.29 307.122 1356.09 305.318 1358.32 305.318C1360.54 305.318 1362.34 307.122 1362.34 309.347C1362.34 311.571 1360.54 313.375 1358.32 313.375C1356.09 313.375 1354.29 311.571 1354.29 309.347Z" fill="url(#paint47_linear_636_6838)"/>
<path d="M1359.01 0H1357.67V307.024H1359.01V0Z" fill="url(#paint48_linear_636_6838)"/>
<path d="M1415.45 326.523C1415.45 324.298 1417.26 322.494 1419.48 322.494C1421.71 322.494 1423.51 324.298 1423.51 326.523C1423.51 328.747 1421.71 330.551 1419.48 330.551C1417.26 330.551 1415.45 328.747 1415.45 326.523Z" fill="url(#paint49_linear_636_6838)"/>
<path d="M1420.15 17.1758H1418.82V324.2H1420.15V17.1758Z" fill="url(#paint50_linear_636_6838)"/>
<path d="M1168.61 510.247C1168.61 508.023 1170.41 506.219 1172.64 506.219C1174.86 506.219 1176.67 508.023 1176.67 510.247C1176.67 512.471 1174.86 514.276 1172.64 514.276C1170.44 514.276 1168.61 512.471 1168.61 510.247Z" fill="url(#paint51_linear_636_6838)"/>
<path d="M1173.33 200.9H1172V507.924H1173.33V200.9Z" fill="url(#paint52_linear_636_6838)"/>
<path d="M1426.43 388.63C1426.43 386.406 1428.23 384.602 1430.46 384.602C1432.68 384.602 1434.48 386.406 1434.48 388.63C1434.48 390.854 1432.68 392.658 1430.46 392.658C1428.23 392.658 1426.43 390.854 1426.43 388.63Z" fill="url(#paint53_linear_636_6838)"/>
<path d="M1431.15 79.2832H1429.81V386.307H1431.15V79.2832Z" fill="url(#paint54_linear_636_6838)"/>
<path d="M1115.89 428.196C1115.89 425.972 1117.7 424.168 1119.92 424.168C1122.15 424.168 1123.95 425.972 1123.95 428.196C1123.95 430.421 1122.15 432.225 1119.92 432.225C1117.7 432.249 1115.89 430.445 1115.89 428.196Z" fill="url(#paint55_linear_636_6838)"/>
<path d="M1120.59 256.014H1119.26V425.874H1120.59V256.014Z" fill="url(#paint56_linear_636_6838)"/>
<path d="M1185.34 243.089C1185.34 240.865 1187.14 239.061 1189.37 239.061C1191.59 239.061 1193.4 240.865 1193.4 243.089C1193.4 245.313 1191.59 247.117 1189.37 247.117C1187.14 247.142 1185.34 245.338 1185.34 243.089Z" fill="url(#paint57_linear_636_6838)"/>
<path d="M1190.06 117.764H1188.73V240.791H1190.06V117.764Z" fill="url(#paint58_linear_636_6838)"/>
<path d="M1404.98 460.202C1404.98 457.978 1406.78 456.174 1409 456.174C1411.23 456.174 1413.03 457.978 1413.03 460.202C1413.03 462.427 1411.23 464.231 1409 464.231C1406.78 464.231 1404.98 462.427 1404.98 460.202Z" fill="url(#paint59_linear_636_6838)"/>
<path d="M1409.7 287.994H1408.36V457.855H1409.7V287.994Z" fill="url(#paint60_linear_636_6838)"/>
</g>
<defs>
<linearGradient id="paint0_linear_636_6838" x1="180.224" y1="315.458" x2="180.224" y2="245.438" gradientUnits="userSpaceOnUse">
<stop stop-color="#A4FFFF"/>
<stop offset="1" stop-color="#A4FFFF" stop-opacity="0"/>
</linearGradient>
<linearGradient id="paint1_linear_636_6838" x1="180.227" y1="315.456" x2="180.227" y2="245.439" gradientUnits="userSpaceOnUse">
<stop stop-color="#A4FFFF"/>
<stop offset="1" stop-color="#A4FFFF" stop-opacity="0"/>
</linearGradient>
<linearGradient id="paint2_linear_636_6838" x1="-2.52995" y1="205.898" x2="-2.52995" y2="135.857" gradientUnits="userSpaceOnUse">
<stop stop-color="#A4FFFF"/>
<stop offset="1" stop-color="#A4FFFF" stop-opacity="0"/>
</linearGradient>
<linearGradient id="paint3_linear_636_6838" x1="47.5572" y1="111.227" x2="47.5572" y2="41.207" gradientUnits="userSpaceOnUse">
<stop stop-color="#A4FFFF"/>
<stop offset="1" stop-color="#A4FFFF" stop-opacity="0"/>
</linearGradient>
<linearGradient id="paint4_linear_636_6838" x1="47.5568" y1="111.225" x2="47.5568" y2="41.2072" gradientUnits="userSpaceOnUse">
<stop stop-color="#A4FFFF"/>
<stop offset="1" stop-color="#A4FFFF" stop-opacity="0"/>
</linearGradient>
<linearGradient id="paint5_linear_636_6838" x1="87.7945" y1="131.675" x2="87.7945" y2="61.6529" gradientUnits="userSpaceOnUse">
<stop stop-color="#A4FFFF"/>
<stop offset="1" stop-color="#A4FFFF" stop-opacity="0"/>
</linearGradient>
<linearGradient id="paint6_linear_636_6838" x1="87.7944" y1="131.676" x2="87.7944" y2="61.6562" gradientUnits="userSpaceOnUse">
<stop stop-color="#A4FFFF"/>
<stop offset="1" stop-color="#A4FFFF" stop-opacity="0"/>
</linearGradient>
<linearGradient id="paint7_linear_636_6838" x1="153.431" y1="361.411" x2="153.431" y2="291.41" gradientUnits="userSpaceOnUse">
<stop stop-color="#A4FFFF"/>
<stop offset="1" stop-color="#A4FFFF" stop-opacity="0"/>
</linearGradient>
<linearGradient id="paint8_linear_636_6838" x1="153.432" y1="361.404" x2="153.432" y2="291.386" gradientUnits="userSpaceOnUse">
<stop stop-color="#A4FFFF"/>
<stop offset="1" stop-color="#A4FFFF" stop-opacity="0"/>
</linearGradient>
<linearGradient id="paint9_linear_636_6838" x1="215.771" y1="102.282" x2="215.771" y2="32.2622" gradientUnits="userSpaceOnUse">
<stop stop-color="#A4FFFF"/>
<stop offset="1" stop-color="#A4FFFF" stop-opacity="0"/>
</linearGradient>
<linearGradient id="paint10_linear_636_6838" x1="215.77" y1="102.28" x2="215.77" y2="32.2628" gradientUnits="userSpaceOnUse">
<stop stop-color="#A4FFFF"/>
<stop offset="1" stop-color="#A4FFFF" stop-opacity="0"/>
</linearGradient>
<linearGradient id="paint11_linear_636_6838" x1="104.593" y1="98.3303" x2="104.593" y2="28.3107" gradientUnits="userSpaceOnUse">
<stop stop-color="#A4FFFF"/>
<stop offset="1" stop-color="#A4FFFF" stop-opacity="0"/>
</linearGradient>
<linearGradient id="paint12_linear_636_6838" x1="104.594" y1="108.507" x2="104.594" y2="73.4977" gradientUnits="userSpaceOnUse">
<stop stop-color="#A4FFFF"/>
<stop offset="1" stop-color="#A4FFFF" stop-opacity="0"/>
</linearGradient>
<linearGradient id="paint13_linear_636_6838" x1="256.543" y1="321.981" x2="256.543" y2="251.961" gradientUnits="userSpaceOnUse">
<stop stop-color="#A4FFFF"/>
<stop offset="1" stop-color="#A4FFFF" stop-opacity="0"/>
</linearGradient>
<linearGradient id="paint14_linear_636_6838" x1="256.542" y1="332.157" x2="256.542" y2="297.148" gradientUnits="userSpaceOnUse">
<stop stop-color="#A4FFFF"/>
<stop offset="1" stop-color="#A4FFFF" stop-opacity="0"/>
</linearGradient>
<linearGradient id="paint15_linear_636_6838" x1="24.771" y1="86.2497" x2="24.771" y2="16.2085" gradientUnits="userSpaceOnUse">
<stop stop-color="#A4FFFF"/>
<stop offset="1" stop-color="#A4FFFF" stop-opacity="0"/>
</linearGradient>
<linearGradient id="paint16_linear_636_6838" x1="24.7709" y1="96.4342" x2="24.7709" y2="61.4246" gradientUnits="userSpaceOnUse">
<stop stop-color="#A4FFFF"/>
<stop offset="1" stop-color="#A4FFFF" stop-opacity="0"/>
</linearGradient>
<linearGradient id="paint17_linear_636_6838" x1="155.018" y1="24.6345" x2="155.018" y2="-45.3854" gradientUnits="userSpaceOnUse">
<stop stop-color="#A4FFFF"/>
<stop offset="1" stop-color="#A4FFFF" stop-opacity="0"/>
</linearGradient>
<linearGradient id="paint18_linear_636_6838" x1="155.02" y1="34.8105" x2="155.02" y2="-0.195632" gradientUnits="userSpaceOnUse">
<stop stop-color="#A4FFFF"/>
<stop offset="1" stop-color="#A4FFFF" stop-opacity="0"/>
</linearGradient>
<linearGradient id="paint19_linear_636_6838" x1="98.957" y1="350.188" x2="98.957" y2="280.168" gradientUnits="userSpaceOnUse">
<stop stop-color="#A4FFFF"/>
<stop offset="1" stop-color="#A4FFFF" stop-opacity="0"/>
</linearGradient>
<linearGradient id="paint20_linear_636_6838" x1="98.956" y1="350.188" x2="98.956" y2="280.168" gradientUnits="userSpaceOnUse">
<stop stop-color="#A4FFFF"/>
<stop offset="1" stop-color="#A4FFFF" stop-opacity="0"/>
</linearGradient>
<linearGradient id="paint21_linear_636_6838" x1="214.887" y1="302.965" x2="214.887" y2="232.924" gradientUnits="userSpaceOnUse">
<stop stop-color="#A4FFFF"/>
<stop offset="1" stop-color="#A4FFFF" stop-opacity="0"/>
</linearGradient>
<linearGradient id="paint22_linear_636_6838" x1="214.888" y1="302.971" x2="214.888" y2="232.953" gradientUnits="userSpaceOnUse">
<stop stop-color="#A4FFFF"/>
<stop offset="1" stop-color="#A4FFFF" stop-opacity="0"/>
</linearGradient>
<linearGradient id="paint23_linear_636_6838" x1="20.7346" y1="510.33" x2="20.7346" y2="385.631" gradientUnits="userSpaceOnUse">
<stop stop-color="#A4FFFF"/>
<stop offset="1" stop-color="#A4FFFF" stop-opacity="0"/>
</linearGradient>
<linearGradient id="paint24_linear_636_6838" x1="20.736" y1="479.128" x2="20.736" y2="249.74" gradientUnits="userSpaceOnUse">
<stop stop-color="#A4FFFF"/>
<stop offset="1" stop-color="#A4FFFF" stop-opacity="0"/>
</linearGradient>
<linearGradient id="paint25_linear_636_6838" x1="191.548" y1="334.533" x2="191.548" y2="209.834" gradientUnits="userSpaceOnUse">
<stop stop-color="#A4FFFF"/>
<stop offset="1" stop-color="#A4FFFF" stop-opacity="0"/>
</linearGradient>
<linearGradient id="paint26_linear_636_6838" x1="191.55" y1="303.33" x2="191.55" y2="73.9423" gradientUnits="userSpaceOnUse">
<stop stop-color="#A4FFFF"/>
<stop offset="1" stop-color="#A4FFFF" stop-opacity="0"/>
</linearGradient>
<linearGradient id="paint27_linear_636_6838" x1="83.0447" y1="424.524" x2="83.0447" y2="299.825" gradientUnits="userSpaceOnUse">
<stop stop-color="#A4FFFF"/>
<stop offset="1" stop-color="#A4FFFF" stop-opacity="0"/>
</linearGradient>
<linearGradient id="paint28_linear_636_6838" x1="83.0458" y1="393.319" x2="83.0458" y2="163.932" gradientUnits="userSpaceOnUse">
<stop stop-color="#A4FFFF"/>
<stop offset="1" stop-color="#A4FFFF" stop-opacity="0"/>
</linearGradient>
<linearGradient id="paint29_linear_636_6838" x1="168.33" y1="186.369" x2="168.33" y2="61.632" gradientUnits="userSpaceOnUse">
<stop stop-color="#A4FFFF"/>
<stop offset="1" stop-color="#A4FFFF" stop-opacity="0"/>
</linearGradient>
<linearGradient id="paint30_linear_636_6838" x1="168.33" y1="185.724" x2="168.33" y2="58.8094" gradientUnits="userSpaceOnUse">
<stop stop-color="#A4FFFF"/>
<stop offset="1" stop-color="#A4FFFF" stop-opacity="0"/>
</linearGradient>
<linearGradient id="paint31_linear_636_6838" x1="1311.8" y1="358.066" x2="1311.8" y2="288.068" gradientUnits="userSpaceOnUse">
<stop stop-color="#A4FFFF"/>
<stop offset="1" stop-color="#A4FFFF" stop-opacity="0"/>
</linearGradient>
<linearGradient id="paint32_linear_636_6838" x1="1311.8" y1="364.217" x2="1311.8" y2="315.387" gradientUnits="userSpaceOnUse">
<stop stop-color="#A4FFFF"/>
<stop offset="1" stop-color="#A4FFFF" stop-opacity="0"/>
</linearGradient>
<linearGradient id="paint33_linear_636_6838" x1="1207.88" y1="267.944" x2="1207.88" y2="197.924" gradientUnits="userSpaceOnUse">
<stop stop-color="#A4FFFF"/>
<stop offset="1" stop-color="#A4FFFF" stop-opacity="0"/>
</linearGradient>
<linearGradient id="paint34_linear_636_6838" x1="1207.88" y1="251.561" x2="1207.88" y2="125.18" gradientUnits="userSpaceOnUse">
<stop stop-color="#A4FFFF"/>
<stop offset="1" stop-color="#A4FFFF" stop-opacity="0"/>
</linearGradient>
<linearGradient id="paint35_linear_636_6838" x1="1161.96" y1="129.083" x2="1161.96" y2="59.0632" gradientUnits="userSpaceOnUse">
<stop stop-color="#A4FFFF"/>
<stop offset="1" stop-color="#A4FFFF" stop-opacity="0"/>
</linearGradient>
<linearGradient id="paint36_linear_636_6838" x1="1161.96" y1="129.084" x2="1161.96" y2="59.064" gradientUnits="userSpaceOnUse">
<stop stop-color="#A4FFFF"/>
<stop offset="1" stop-color="#A4FFFF" stop-opacity="0"/>
</linearGradient>
<linearGradient id="paint37_linear_636_6838" x1="1286.67" y1="199.207" x2="1286.67" y2="129.166" gradientUnits="userSpaceOnUse">
<stop stop-color="#A4FFFF"/>
<stop offset="1" stop-color="#A4FFFF" stop-opacity="0"/>
</linearGradient>
<linearGradient id="paint38_linear_636_6838" x1="1286.67" y1="199.213" x2="1286.67" y2="129.194" gradientUnits="userSpaceOnUse">
<stop stop-color="#A4FFFF"/>
<stop offset="1" stop-color="#A4FFFF" stop-opacity="0"/>
</linearGradient>
<linearGradient id="paint39_linear_636_6838" x1="1414.21" y1="206.235" x2="1414.21" y2="136.215" gradientUnits="userSpaceOnUse">
<stop stop-color="#A4FFFF"/>
<stop offset="1" stop-color="#A4FFFF" stop-opacity="0"/>
</linearGradient>
<linearGradient id="paint40_linear_636_6838" x1="1414.21" y1="206.235" x2="1414.21" y2="136.215" gradientUnits="userSpaceOnUse">
<stop stop-color="#A4FFFF"/>
<stop offset="1" stop-color="#A4FFFF" stop-opacity="0"/>
</linearGradient>
<linearGradient id="paint41_linear_636_6838" x1="1274.85" y1="256.787" x2="1274.85" y2="132.088" gradientUnits="userSpaceOnUse">
<stop stop-color="#A4FFFF"/>
<stop offset="1" stop-color="#A4FFFF" stop-opacity="0"/>
</linearGradient>
<linearGradient id="paint42_linear_636_6838" x1="1274.85" y1="256.789" x2="1274.85" y2="132.091" gradientUnits="userSpaceOnUse">
<stop stop-color="#A4FFFF"/>
<stop offset="1" stop-color="#A4FFFF" stop-opacity="0"/>
</linearGradient>
<linearGradient id="paint43_linear_636_6838" x1="1298.3" y1="226.18" x2="1298.3" y2="101.481" gradientUnits="userSpaceOnUse">
<stop stop-color="#A4FFFF"/>
<stop offset="1" stop-color="#A4FFFF" stop-opacity="0"/>
</linearGradient>
<linearGradient id="paint44_linear_636_6838" x1="1298.3" y1="233.674" x2="1298.3" y2="134.126" gradientUnits="userSpaceOnUse">
<stop stop-color="#A4FFFF"/>
<stop offset="1" stop-color="#A4FFFF" stop-opacity="0"/>
</linearGradient>
<linearGradient id="paint45_linear_636_6838" x1="1240.82" y1="403.166" x2="1240.82" y2="278.467" gradientUnits="userSpaceOnUse">
<stop stop-color="#A4FFFF"/>
<stop offset="1" stop-color="#A4FFFF" stop-opacity="0"/>
</linearGradient>
<linearGradient id="paint46_linear_636_6838" x1="1240.82" y1="371.962" x2="1240.82" y2="142.574" gradientUnits="userSpaceOnUse">
<stop stop-color="#A4FFFF"/>
<stop offset="1" stop-color="#A4FFFF" stop-opacity="0"/>
</linearGradient>
<linearGradient id="paint47_linear_636_6838" x1="1358.33" y1="269.841" x2="1358.33" y2="145.104" gradientUnits="userSpaceOnUse">
<stop stop-color="#A4FFFF"/>
<stop offset="1" stop-color="#A4FFFF" stop-opacity="0"/>
</linearGradient>
<linearGradient id="paint48_linear_636_6838" x1="1358.33" y1="238.647" x2="1358.33" y2="9.25916" gradientUnits="userSpaceOnUse">
<stop stop-color="#A4FFFF"/>
<stop offset="1" stop-color="#A4FFFF" stop-opacity="0"/>
</linearGradient>
<linearGradient id="paint49_linear_636_6838" x1="1419.49" y1="287.021" x2="1419.49" y2="162.288" gradientUnits="userSpaceOnUse">
<stop stop-color="#A4FFFF"/>
<stop offset="1" stop-color="#A4FFFF" stop-opacity="0"/>
</linearGradient>
<linearGradient id="paint50_linear_636_6838" x1="1419.49" y1="255.83" x2="1419.49" y2="26.4404" gradientUnits="userSpaceOnUse">
<stop stop-color="#A4FFFF"/>
<stop offset="1" stop-color="#A4FFFF" stop-opacity="0"/>
</linearGradient>
<linearGradient id="paint51_linear_636_6838" x1="1172.66" y1="470.757" x2="1172.66" y2="346.058" gradientUnits="userSpaceOnUse">
<stop stop-color="#A4FFFF"/>
<stop offset="1" stop-color="#A4FFFF" stop-opacity="0"/>
</linearGradient>
<linearGradient id="paint52_linear_636_6838" x1="1172.66" y1="439.553" x2="1172.66" y2="210.167" gradientUnits="userSpaceOnUse">
<stop stop-color="#A4FFFF"/>
<stop offset="1" stop-color="#A4FFFF" stop-opacity="0"/>
</linearGradient>
<linearGradient id="paint53_linear_636_6838" x1="1430.47" y1="349.146" x2="1430.47" y2="224.485" gradientUnits="userSpaceOnUse">
<stop stop-color="#A4FFFF"/>
<stop offset="1" stop-color="#A4FFFF" stop-opacity="0"/>
</linearGradient>
<linearGradient id="paint54_linear_636_6838" x1="1430.47" y1="317.931" x2="1430.47" y2="88.5426" gradientUnits="userSpaceOnUse">
<stop stop-color="#A4FFFF"/>
<stop offset="1" stop-color="#A4FFFF" stop-opacity="0"/>
</linearGradient>
<linearGradient id="paint55_linear_636_6838" x1="1119.93" y1="388.718" x2="1119.93" y2="264.019" gradientUnits="userSpaceOnUse">
<stop stop-color="#A4FFFF"/>
<stop offset="1" stop-color="#A4FFFF" stop-opacity="0"/>
</linearGradient>
<linearGradient id="paint56_linear_636_6838" x1="1119.93" y1="388.058" x2="1119.93" y2="261.146" gradientUnits="userSpaceOnUse">
<stop stop-color="#A4FFFF"/>
<stop offset="1" stop-color="#A4FFFF" stop-opacity="0"/>
</linearGradient>
<linearGradient id="paint57_linear_636_6838" x1="1189.39" y1="203.611" x2="1189.39" y2="78.9121" gradientUnits="userSpaceOnUse">
<stop stop-color="#A4FFFF"/>
<stop offset="1" stop-color="#A4FFFF" stop-opacity="0"/>
</linearGradient>
<linearGradient id="paint58_linear_636_6838" x1="1189.39" y1="213.385" x2="1189.39" y2="121.475" gradientUnits="userSpaceOnUse">
<stop stop-color="#A4FFFF"/>
<stop offset="1" stop-color="#A4FFFF" stop-opacity="0"/>
</linearGradient>
<linearGradient id="paint59_linear_636_6838" x1="1409.02" y1="420.716" x2="1409.02" y2="296.055" gradientUnits="userSpaceOnUse">
<stop stop-color="#A4FFFF"/>
<stop offset="1" stop-color="#A4FFFF" stop-opacity="0"/>
</linearGradient>
<linearGradient id="paint60_linear_636_6838" x1="1409.02" y1="420.044" x2="1409.02" y2="293.129" gradientUnits="userSpaceOnUse">
<stop stop-color="#A4FFFF"/>
<stop offset="1" stop-color="#A4FFFF" stop-opacity="0"/>
</linearGradient>
<clipPath id="clip0_636_6838">
<rect width="1537" height="572" fill="white" transform="translate(-33)"/>
</clipPath>
</defs>
</svg>
