<svg width="1170" height="31" viewBox="0 0 1170 31" fill="none" xmlns="http://www.w3.org/2000/svg">
<g opacity="0.3">
<g clip-path="url(#clip0_636_17059)">
<path d="M114.388 16.4405C114.348 16.4878 114.31 16.5371 114.268 16.5816L114.267 16.5909L110.284 21.0456L110.278 21.0437C110.013 21.3413 109.699 21.5774 109.353 21.7384C109.006 21.8993 108.635 21.9821 108.26 21.9817H104.34C104.262 21.9815 104.185 21.9986 104.114 22.0317C104.042 22.0649 103.976 22.1136 103.921 22.175C103.866 22.2364 103.823 22.3093 103.793 22.3897C103.763 22.4699 103.748 22.5559 103.748 22.6428V26.558L103.736 26.5589C103.714 26.7031 103.658 26.8378 103.573 26.9485C103.487 27.0592 103.377 27.1415 103.252 27.1862C103.128 27.2311 102.995 27.2367 102.868 27.2025C102.741 27.1684 102.625 27.0957 102.532 26.9926L102.53 26.9944L98.9179 22.9568L98.9212 22.9503C98.6447 22.6537 98.4246 22.2975 98.2744 21.9034C98.1241 21.5091 98.0467 21.085 98.0469 20.6565V10.5539C98.0469 9.69767 98.3499 8.92225 98.8415 8.34928L98.8398 8.34371L102.935 3.76367L102.937 3.76461C103.468 3.18132 104.183 2.85484 104.928 2.85547H108.26C108.685 2.85547 109.087 2.96226 109.448 3.14892V3.14149C109.757 3.30214 110.038 3.51852 110.274 3.78411L110.279 3.78132L115.139 9.21756L115.14 15.5945H120.828V25.5031C120.83 25.5087 120.83 25.5151 120.83 25.5216V25.7454C120.805 26.1476 120.644 26.5242 120.381 26.7992C120.117 27.0743 119.77 27.2273 119.41 27.2275H116.559C116.362 27.2274 116.168 27.1816 115.987 27.0931C115.807 27.0045 115.645 26.8751 115.512 26.7131C115.378 26.5511 115.277 26.3599 115.213 26.1516C115.149 25.9434 115.124 25.7225 115.14 25.5031V15.5945L114.388 16.4405ZM108.856 15.6019C108.934 15.6021 109.011 15.585 109.083 15.5518C109.155 15.5187 109.22 15.47 109.275 15.4086C109.33 15.3472 109.373 15.2743 109.403 15.194C109.433 15.1137 109.448 15.0277 109.448 14.9407V9.89454C109.448 9.80763 109.433 9.72158 109.403 9.6413C109.373 9.56102 109.33 9.48808 109.275 9.42668C109.22 9.36527 109.155 9.31658 109.083 9.28341C109.011 9.25024 108.934 9.23323 108.856 9.23335V9.23242H104.339C104.182 9.23242 104.032 9.30205 103.921 9.42602C103.81 9.54999 103.747 9.71816 103.747 9.89361V14.9389C103.747 15.3048 104.012 15.6001 104.339 15.6001H108.855L108.856 15.6019Z" fill="white"/>
<path d="M115.144 15.6017H120.831L115.144 9.22656V15.6017Z" fill="white"/>
<path d="M128.894 8.16866H134.158C136.308 8.16866 138.216 8.16866 139.365 10.0139C139.866 10.8431 140.107 12.0243 140.107 13.019C140.107 13.8268 139.958 14.6152 139.662 15.2987C138.532 17.911 136.122 17.9732 134.343 18.014H132.175V22.8021H128.894V8.16866ZM132.176 10.8636V15.2987H134.143C135.367 15.2987 136.851 15.2579 136.851 12.9985C136.851 10.8627 135.2 10.8627 134.254 10.8627L132.176 10.8636ZM144.038 13.0997C144.668 12.498 145.354 12.0216 146.836 11.8553V14.6747L145.891 14.84C144.52 15.1093 144.112 15.3377 144.112 16.7056V22.7993H141.258V11.9593H144.038V13.0997ZM157.974 17.3668C157.974 20.1035 156.566 23.1086 152.785 23.1086C150.06 23.1086 147.577 21.3674 147.577 17.3668C147.577 14.0506 149.448 11.418 153.156 11.6464C157.103 11.8953 157.974 15.3981 157.974 17.3668ZM150.931 15.2337C150.579 15.8559 150.45 16.6035 150.45 17.351C150.45 19.0737 151.19 20.5892 152.785 20.5892C154.323 20.5892 155.083 19.1981 155.083 17.4968C155.083 16.2924 154.823 15.3582 154.286 14.7768C153.693 14.1546 153.025 14.1333 152.618 14.1751C151.802 14.2373 151.321 14.5484 150.932 15.2337H150.931ZM160.292 10.8989C160.292 10.3603 160.328 9.63406 160.699 9.05365C161.051 8.51505 161.848 7.95508 163.183 7.95508C163.757 7.95508 164.332 8.05909 164.888 8.14081V10.5256H164.202C163.127 10.5256 163.072 10.7744 163.09 12.2249H164.999V14.1732H163.108V22.7965H160.273V14.1732H158.753V12.2249H160.292V10.8989Z" fill="white"/>
<path d="M166.425 10.6149H169.241V8.14844H166.425V10.6149ZM166.425 22.8032H169.241V11.9624H166.425V22.8032Z" fill="white"/>
<path d="M172.151 8.8457H174.987V12.2241H176.859V14.1723H174.969V19.044C174.95 19.707 174.95 20.267 175.71 20.267L176.729 20.2252V22.7121C176.118 22.8161 175.747 22.8783 175.229 22.8783C174.245 22.8783 173.171 22.8161 172.559 21.8206C172.17 21.1789 172.152 20.4119 172.152 19.3755V14.152H170.743V12.2036H172.151V8.8457Z" fill="white"/>
<path d="M187.566 8.16797C187.957 9.74293 188.345 11.3188 188.77 12.8947C189.494 15.7131 189.624 16.1691 190.031 19.0089C190.42 16.1069 190.513 15.6101 191.106 12.6245C191.384 11.1322 191.68 9.63986 191.959 8.16797H195.202L191.885 22.8015H188.511C188.104 21.1856 187.714 19.5679 187.288 17.9725C186.584 15.2776 186.546 15.1736 186.157 13.1222C185.824 14.9256 185.787 15.0705 185.045 17.8685L183.785 22.8015H180.412L177.095 8.16797H180.357C181.765 15.1114 181.914 15.8784 182.302 19.0497C182.784 16.1487 182.915 15.5887 183.6 12.6867L184.675 8.16797H187.566Z" fill="white"/>
<path d="M204.784 20.0462C204.45 20.6061 204.116 21.1447 203.616 21.6629C202.782 22.534 201.521 23.197 199.965 23.197C197.092 23.197 195.072 21.1447 195.072 17.6001C195.072 14.9888 196.221 11.6309 200.039 11.6309C200.614 11.6309 202.281 11.6931 203.523 13.1854C204.784 14.699 204.858 16.8126 204.895 18.0356H197.982C197.963 19.3821 198.649 20.7306 200.188 20.7306C201.744 20.7306 202.282 19.5902 202.634 18.8231L204.784 20.0462ZM201.948 16.0363C201.892 15.5821 201.818 14.9841 201.41 14.5096C201.058 14.1168 200.522 13.9106 200.021 13.9106C199.335 13.9106 198.853 14.2821 198.575 14.6127C198.185 15.0872 198.093 15.5821 198.001 16.0363H201.948Z" fill="white"/>
<path d="M206.547 22.8015H209.401V8.16797H206.547V22.8015Z" fill="white"/>
<path d="M211.953 22.8015H214.806V8.16797H211.953V22.8015Z" fill="white"/>
</g>
<g clip-path="url(#clip1_636_17059)">
<path d="M297.925 16.1627L304.871 27.1312C304.953 27.2567 305.066 27.3585 305.199 27.4269C305.332 27.4952 305.48 27.5277 305.629 27.5212H308.202C308.318 27.5225 308.433 27.5005 308.541 27.4564C308.648 27.4123 308.746 27.347 308.828 27.2643C308.911 27.1817 308.976 27.0833 309.02 26.975C309.064 26.8667 309.086 26.7506 309.085 26.6335V3.40474C309.083 3.21949 309.024 3.03933 308.917 2.88896C308.81 2.7386 308.659 2.62539 308.485 2.56488C308.311 2.50436 308.123 2.49949 307.947 2.55094C307.77 2.60239 307.614 2.70764 307.499 2.85226L297.925 15.0963C297.821 15.2545 297.766 15.4399 297.766 15.6295C297.766 15.8191 297.821 16.0045 297.925 16.1627Z" fill="white"/>
<path d="M290.117 27.5176H294.699C294.815 27.519 294.931 27.4969 295.038 27.4528C295.146 27.4087 295.243 27.3434 295.326 27.2608C295.408 27.1781 295.473 27.0797 295.517 26.9714C295.561 26.8631 295.583 26.747 295.582 26.63V20.7395C295.579 20.5545 295.52 20.3748 295.412 20.225C295.304 20.0753 295.153 19.9626 294.98 19.9025C294.806 19.8423 294.618 19.8375 294.442 19.8888C294.266 19.94 294.109 20.0449 293.994 20.189L289.412 26.0795C289.314 26.2128 289.254 26.3706 289.24 26.5358C289.225 26.7009 289.256 26.8669 289.329 27.0155C289.402 27.1641 289.514 27.2896 289.653 27.3782C289.792 27.4668 289.953 27.515 290.117 27.5176Z" fill="white"/>
<path d="M371.961 14.2729C371.909 14.2083 371.851 14.1478 371.79 14.0922L371.695 14.0109L371.647 13.9682C371.429 13.783 371.191 13.621 370.939 13.4848C370.667 13.3199 370.378 13.1838 370.077 13.0785C369.77 12.9678 369.454 12.8836 369.132 12.8267C368.302 12.6778 367.448 12.7216 366.637 12.9547C366.153 13.0928 365.687 13.2914 365.251 13.5457C364.823 13.7987 364.428 14.1059 364.076 14.4598C363.726 14.8168 363.417 15.2127 363.155 15.6399C362.889 16.0702 362.686 16.5367 362.551 17.0252C362.265 18.0355 362.265 19.1063 362.551 20.1167C362.689 20.6033 362.892 21.0687 363.155 21.4999C363.417 21.9272 363.726 22.323 364.076 22.68C364.43 23.0343 364.825 23.3422 365.255 23.5961C365.692 23.8432 366.155 24.0408 366.636 24.1852C367.467 24.4353 368.346 24.4793 369.199 24.3131C369.526 24.2585 369.847 24.1665 370.154 24.0389C370.448 23.9178 370.733 23.7745 371.006 23.6103C371.277 23.4473 371.539 23.2676 371.788 23.072C371.859 23.009 371.927 22.9412 371.99 22.869L372.022 22.8324C372.081 22.7606 372.127 22.6778 372.155 22.5887L372.167 22.5155C372.173 22.3985 372.146 22.2822 372.088 22.1803L372.06 22.1357C372.038 22.0997 372.013 22.0657 371.985 22.0341L371.911 21.9325C371.762 21.7294 371.621 21.5263 371.469 21.3395C371.406 21.2653 371.326 21.2069 371.236 21.1688C371.146 21.1383 371.049 21.1383 370.96 21.1688C370.831 21.2265 370.715 21.307 370.615 21.4065L370.482 21.5202C370.351 21.6299 370.281 21.701 370.097 21.831C369.932 21.9578 369.754 22.0661 369.565 22.154C369.362 22.2584 369.146 22.3349 368.922 22.3815C368.187 22.542 367.421 22.4608 366.734 22.1499C366.293 21.9496 365.892 21.6694 365.551 21.3232C365.201 20.9693 364.922 20.5515 364.727 20.0923C364.52 19.6262 364.413 19.1213 364.413 18.6105C364.413 18.0998 364.52 17.5948 364.727 17.1288C364.924 16.6672 365.202 16.2458 365.549 15.8857C365.895 15.5373 366.296 15.2502 366.736 15.0367C367.373 14.7317 368.093 14.6461 368.783 14.7929C369.015 14.8463 369.241 14.9183 369.461 15.0082C369.67 15.0978 369.872 15.2037 370.065 15.3251C370.468 15.5647 370.923 16.2513 371.365 15.7069L372.003 14.8417C372.034 14.8002 372.055 14.7531 372.066 14.7032C372.078 14.6533 372.079 14.6016 372.07 14.5512C372.059 14.4503 372.021 14.3543 371.961 14.2729Z" fill="white"/>
<path d="M332.667 23.4813L325.679 7.45312C325.632 7.3341 325.551 7.23188 325.446 7.15952C325.341 7.08716 325.218 7.04794 325.091 7.04688H323.97C323.845 7.04637 323.722 7.08336 323.618 7.15315C323.514 7.22294 323.432 7.32239 323.384 7.4389L316.381 23.463C316.333 23.561 316.312 23.6701 316.319 23.7793C316.326 23.8884 316.361 23.9937 316.422 24.0846C316.479 24.1774 316.559 24.2538 316.654 24.3065C316.749 24.3591 316.855 24.3863 316.964 24.3852H317.997C318.123 24.3878 318.247 24.3516 318.352 24.2816C318.457 24.2116 318.539 24.111 318.586 23.9931L320.266 20.0384H328.76L330.43 23.9931C330.477 24.1125 330.559 24.215 330.664 24.2873C330.769 24.3597 330.894 24.3988 331.021 24.3994H332.028C332.133 24.4061 332.237 24.3864 332.332 24.342C332.427 24.2977 332.51 24.2301 332.573 24.1455C332.646 24.0536 332.694 23.9435 332.71 23.8265C332.727 23.7096 332.712 23.5903 332.667 23.4813ZM321.161 17.9971L321.189 17.9341L324.557 10.0348L327.934 17.9971H321.161Z" fill="white"/>
<path d="M396.652 16.7822C396.478 16.1619 396.206 15.5741 395.846 15.0414C395.581 14.683 395.275 14.3565 394.935 14.0685C394.613 13.7796 394.248 13.5438 393.853 13.3697C393.468 13.1757 393.063 13.0245 392.644 12.9188C391.71 12.6869 390.732 12.7058 389.807 12.9737C389.333 13.1066 388.878 13.3048 388.457 13.5627C388.04 13.8242 387.656 14.1336 387.311 14.4848C386.971 14.8358 386.683 15.2338 386.456 15.667C386.214 16.108 386.03 16.5783 385.906 17.0665C385.69 17.8438 385.648 18.6594 385.781 19.4552C385.816 19.7662 385.875 20.0738 385.958 20.3753C386.132 20.997 386.404 21.5862 386.764 22.1201C387.03 22.478 387.335 22.8037 387.675 23.091C387.998 23.3803 388.364 23.6167 388.759 23.7918C389.145 23.9862 389.55 24.1367 389.968 24.2407C391.393 24.5918 392.898 24.3603 394.153 23.5968C394.57 23.3359 394.954 23.0271 395.3 22.6767C395.63 22.3397 395.907 21.9549 396.124 21.5352L396.142 21.4945C396.183 21.4393 396.207 21.3737 396.213 21.3052C396.219 21.2366 396.206 21.1678 396.175 21.1065C396.149 21.06 396.113 21.0208 396.067 20.993C396.023 20.9652 395.971 20.9498 395.919 20.9481H394.248C394.178 20.9465 394.108 20.9612 394.044 20.9911C393.98 21.021 393.924 21.0654 393.879 21.1208C393.669 21.378 393.424 21.6037 393.15 21.7911C392.857 21.9795 392.539 22.1239 392.205 22.2197C391.464 22.4361 390.674 22.4134 389.946 22.1547C389.559 22.0128 389.194 21.8129 388.866 21.5615C388.547 21.3062 388.282 20.9893 388.086 20.6292C387.915 20.24 387.794 19.8305 387.725 19.4105L387.715 19.3577H387.772L396.356 19.3394C396.708 19.3394 396.908 19.12 396.908 18.73C396.932 18.0709 396.845 17.4125 396.652 16.7822ZM394.825 17.5479L387.879 17.5804L387.896 17.5215C388.012 17.1262 388.185 16.7503 388.411 16.4063C388.685 15.998 389.034 15.6458 389.439 15.3684C389.733 15.1778 390.054 15.032 390.392 14.9358C391.132 14.7193 391.922 14.742 392.65 15.0008C393.038 15.1426 393.402 15.3425 393.73 15.5938C394.051 15.8506 394.317 16.1697 394.512 16.5323C394.682 16.8312 394.804 17.1555 394.873 17.493L394.885 17.5479H394.825Z" fill="white"/>
<path d="M344.999 22.6673C345.345 22.3105 345.649 21.9145 345.904 21.4872C346.157 21.0479 346.354 20.5784 346.491 20.0897C346.775 19.0798 346.775 18.0102 346.491 17.0002C346.354 16.5115 346.157 16.042 345.904 15.6028C345.398 14.7353 344.681 14.0124 343.821 13.5025C343.39 13.2509 342.93 13.0525 342.452 12.9114C341.22 12.5517 339.901 12.635 338.722 13.147C338.226 13.3745 337.763 13.669 337.346 14.0225L337.272 14.0855V13.4598C337.28 13.3823 337.272 13.3038 337.246 13.2302C337.22 13.1565 337.179 13.0897 337.124 13.0346C337.069 12.9795 337.002 12.9377 336.929 12.9121C336.856 12.8865 336.778 12.878 336.701 12.887H335.823C335.745 12.8777 335.666 12.8859 335.592 12.9111C335.518 12.9363 335.45 12.9778 335.394 13.0327C335.338 13.0876 335.295 13.1544 335.268 13.2283C335.24 13.3022 335.23 13.3813 335.236 13.4598V26.943C335.234 27.0176 335.246 27.0919 335.273 27.1615C335.3 27.2312 335.34 27.2947 335.392 27.3483C335.443 27.402 335.505 27.4446 335.573 27.4737C335.641 27.5028 335.714 27.5178 335.789 27.5178H336.685C336.843 27.5225 336.996 27.465 337.112 27.3573C337.165 27.304 337.206 27.2405 337.233 27.1706C337.261 27.1008 337.274 27.0261 337.272 26.9511V23.0105L337.346 23.0735C337.758 23.4226 338.215 23.7118 338.706 23.9327C339.884 24.4446 341.202 24.5279 342.434 24.1683C342.919 24.0305 343.385 23.8319 343.821 23.5773C344.251 23.3267 344.647 23.0208 344.999 22.6673ZM342.334 22.1026C341.887 22.3119 341.401 22.4203 340.909 22.4203C340.417 22.4203 339.93 22.3119 339.484 22.1026C339.036 21.8993 338.634 21.6063 338.301 21.2414C337.96 20.8805 337.687 20.46 337.495 20.0003C337.302 19.5349 337.202 19.0353 337.202 18.5307C337.202 18.0262 337.302 17.5266 337.495 17.0612C337.69 16.6098 337.963 16.1971 338.301 15.8425C338.64 15.4892 339.041 15.2026 339.484 14.9975C339.93 14.7888 340.416 14.6807 340.908 14.6807C341.4 14.6807 341.885 14.7888 342.331 14.9975C342.768 15.2048 343.163 15.4904 343.498 15.8404C343.831 16.1962 344.099 16.6089 344.288 17.0592C344.483 17.5239 344.583 18.0233 344.583 18.5277C344.583 19.0322 344.483 19.5315 344.288 19.9963C344.095 20.4535 343.827 20.875 343.496 21.2434C343.168 21.6031 342.773 21.8949 342.334 22.1026Z" fill="white"/>
<path d="M350.535 12.9036H349.657C349.578 12.8939 349.498 12.9023 349.424 12.9281C349.349 12.9538 349.28 12.9963 349.224 13.0524C349.168 13.1084 349.125 13.1766 349.098 13.2518C349.071 13.3269 349.062 13.4072 349.07 13.4865V26.9513C349.069 27.0263 349.082 27.1009 349.109 27.1708C349.136 27.2405 349.177 27.3041 349.23 27.3576C349.281 27.4094 349.342 27.4503 349.41 27.4778C349.477 27.5054 349.55 27.5191 349.622 27.5181H350.517C350.675 27.5228 350.828 27.4652 350.944 27.3576C350.997 27.3046 351.039 27.2411 351.066 27.1712C351.093 27.1013 351.106 27.0264 351.104 26.9513V23.0108L351.178 23.0738C351.59 23.4233 352.048 23.7125 352.541 23.9329C353.718 24.445 355.036 24.5283 356.268 24.1686C356.753 24.0304 357.219 23.8318 357.655 23.5775C358.084 23.3224 358.481 23.0132 358.833 22.6574C359.179 22.3006 359.481 21.9046 359.736 21.4773C359.989 21.0379 360.186 20.5685 360.323 20.0798C360.609 19.0701 360.609 17.9999 360.323 16.9903C360.186 16.5015 359.989 16.0319 359.736 15.5929C359.232 14.7251 358.515 14.0021 357.655 13.4926C357.223 13.2414 356.763 13.0429 356.284 12.9015C355.052 12.542 353.733 12.6253 352.554 13.1371C352.058 13.3646 351.595 13.6591 351.178 14.0126L351.098 14.0959V13.4865C351.108 13.4089 351.1 13.3301 351.076 13.2558C351.051 13.1816 351.011 13.1138 350.957 13.0578C350.902 13.0016 350.836 12.9586 350.763 12.9319C350.691 12.9052 350.613 12.8955 350.535 12.9036ZM351.329 17.0756C351.524 16.6244 351.797 16.2118 352.135 15.8569C352.472 15.5013 352.872 15.212 353.314 15.0038C353.76 14.7951 354.246 14.687 354.738 14.687C355.23 14.687 355.715 14.7951 356.162 15.0038C356.604 15.2104 357.004 15.4968 357.344 15.8488C357.677 16.2046 357.945 16.6173 358.134 17.0675C358.329 17.5322 358.43 18.0316 358.43 18.5361C358.43 19.0406 358.329 19.5399 358.134 20.0046C357.943 20.4636 357.675 20.8861 357.342 21.2538C357.014 21.6132 356.619 21.905 356.18 22.113C355.733 22.3218 355.247 22.4299 354.754 22.4299C354.261 22.4299 353.775 22.3218 353.328 22.113C352.881 21.9089 352.479 21.616 352.148 21.2518C351.806 20.8913 351.532 20.4706 351.341 20.0108C351.147 19.5466 351.045 19.0483 351.043 18.5444C351.041 18.0406 351.138 17.5413 351.329 17.0756Z" fill="white"/>
<path d="M383.54 13.3197C383.548 13.2409 383.538 13.1613 383.511 13.0868C383.484 13.0124 383.441 12.9451 383.385 12.89C383.328 12.8348 383.26 12.7933 383.185 12.7685C383.111 12.7437 383.031 12.7363 382.953 12.7469H382.069C381.992 12.7378 381.914 12.7464 381.841 12.772C381.768 12.7975 381.701 12.8393 381.646 12.8945C381.592 12.9495 381.55 13.0163 381.524 13.09C381.499 13.1636 381.49 13.2421 381.499 13.3197V19.783C381.506 20.1616 381.424 20.5368 381.261 20.8778C381.12 21.1896 380.914 21.467 380.657 21.6903C380.405 21.8994 380.121 22.0648 379.816 22.1798C379.474 22.3076 379.11 22.3638 378.745 22.345C378.381 22.3261 378.023 22.2326 377.696 22.0701C377.386 21.9081 377.117 21.676 376.91 21.3916C376.705 21.1211 376.558 20.8095 376.481 20.4776C376.397 20.1401 376.352 19.7938 376.348 19.4458V13.4862C376.358 13.2913 376.312 13.0976 376.217 12.9276C376.145 12.8534 376.058 12.7966 375.961 12.7614C375.864 12.7262 375.761 12.7136 375.659 12.7245H375.022C374.927 12.7213 374.833 12.7377 374.745 12.7726C374.656 12.8076 374.576 12.8603 374.508 12.9276C374.438 13.007 374.383 13.0998 374.349 13.2006C374.314 13.3015 374.3 13.4082 374.307 13.5146V19.4641C374.299 20.1139 374.396 20.7606 374.593 21.3795C374.779 21.9558 375.072 22.4909 375.458 22.9557C375.843 23.4105 376.325 23.7716 376.868 24.0119C377.813 24.4 378.85 24.4996 379.851 24.2983C380.12 24.2327 380.384 24.1423 380.638 24.0281C380.875 23.9174 381.094 23.7723 381.289 23.5975L381.428 23.4675L381.505 23.3924V23.8453C381.503 23.9121 381.514 23.9785 381.538 24.0406C381.563 24.1028 381.599 24.1593 381.646 24.2069C381.699 24.2736 381.767 24.3266 381.845 24.362C381.922 24.3972 382.006 24.4137 382.091 24.41H382.986C383.059 24.4115 383.131 24.3983 383.198 24.3711C383.266 24.3438 383.327 24.3032 383.379 24.2516C383.435 24.2012 383.479 24.1383 383.507 24.0677C383.535 23.9972 383.546 23.921 383.54 23.8453V13.3197Z" fill="white"/>
<path d="M406.034 19.6435C405.848 19.2509 405.579 18.9042 405.244 18.628C404.879 18.3278 404.472 18.0835 404.035 17.9029C403.542 17.6964 403.031 17.5372 402.508 17.4275C402.253 17.3693 402.002 17.2926 401.759 17.198C401.538 17.1169 401.328 17.0092 401.134 16.8771C400.871 16.7173 400.667 16.4755 400.553 16.1885C400.487 15.9777 400.487 15.7514 400.553 15.5405C400.624 15.3029 400.922 14.6489 402.075 14.5757C403.177 14.5067 403.731 15.0896 403.922 15.3496C403.951 15.3862 404.221 15.7376 404.414 15.959C404.449 15.9907 404.488 16.018 404.529 16.0402C404.608 16.0711 404.694 16.0815 404.778 16.0705C404.862 16.0595 404.942 16.0275 405.011 15.9772L405.684 15.4735C405.757 15.4295 405.817 15.367 405.859 15.2922C405.902 15.2174 405.924 15.1329 405.923 15.047V15.0267C405.894 14.8961 405.842 14.7717 405.77 14.659C405.572 14.3717 405.356 14.0964 405.125 13.8344C404.92 13.5905 404.68 13.3789 404.412 13.2067C404.135 13.0334 403.833 12.9026 403.518 12.8187C402.619 12.5892 401.672 12.6259 400.793 12.9244C400.349 13.0581 399.938 13.2829 399.584 13.5845C399.246 13.8671 398.976 14.2225 398.792 14.6245C398.609 15.0268 398.512 15.463 398.506 15.9054C398.5 16.3477 398.585 16.7865 398.756 17.1939C398.921 17.564 399.166 17.8927 399.471 18.1567C399.8 18.4411 400.163 18.6845 400.549 18.8819C401.003 19.0966 401.475 19.2693 401.96 19.3978C402.103 19.4303 402.246 19.4689 402.395 19.5095C402.544 19.5502 402.689 19.5887 402.836 19.6232C403.097 19.6867 403.35 19.7808 403.588 19.9035C403.789 20.0002 403.967 20.1386 404.11 20.3098C404.236 20.496 404.301 20.7169 404.297 20.942C404.293 21.1671 404.22 21.3855 404.088 21.5671C403.941 21.7563 403.761 21.9162 403.556 22.0384C403.346 22.1614 403.12 22.2543 402.885 22.3146C402.487 22.405 402.074 22.405 401.676 22.3146C401.467 22.2602 401.264 22.1839 401.072 22.0871C400.876 21.9887 400.694 21.8659 400.529 21.7215C400.379 21.5529 400.249 21.3675 400.14 21.169C400.089 21.0507 400.013 20.9452 399.916 20.8602C399.84 20.7958 399.746 20.7555 399.647 20.7443C399.547 20.7331 399.448 20.7515 399.358 20.7973L398.552 21.1812C398.484 21.2102 398.422 21.2515 398.369 21.303C398.325 21.347 398.29 21.3987 398.264 21.4554C398.233 21.5362 398.226 21.6245 398.244 21.7093C398.252 21.7946 398.273 21.8782 398.307 21.9571C398.446 22.3255 398.644 22.6685 398.893 22.9727C399.169 23.3045 399.506 23.5803 399.884 23.7852C400.238 23.998 400.623 24.1524 401.025 24.2422C401.949 24.4628 402.914 24.4319 403.822 24.1529C404.301 24.0179 404.75 23.7887 405.141 23.4785C405.519 23.1911 405.823 22.8163 406.026 22.3857C406.226 21.9569 406.33 21.4892 406.331 21.0155C406.333 20.5419 406.232 20.0736 406.034 19.6435Z" fill="white"/>
</g>
<g clip-path="url(#clip2_636_17059)">
<path d="M502.744 8.76895C502.743 8.76852 502.743 8.7677 502.742 8.76687C502.741 8.76543 502.74 8.76357 502.739 8.76213C502.713 8.71927 502.686 8.67784 502.657 8.63745C502.649 8.62694 502.641 8.61704 502.633 8.60653C502.61 8.57623 502.586 8.54677 502.561 8.51812C502.547 8.50183 502.532 8.48597 502.517 8.4703C502.496 8.44928 502.476 8.42847 502.454 8.40807C502.435 8.38952 502.414 8.37117 502.394 8.35386C502.375 8.33799 502.356 8.32254 502.336 8.30728C502.313 8.28873 502.288 8.27122 502.264 8.2539C502.245 8.24113 502.227 8.22856 502.208 8.21619C502.181 8.1997 502.155 8.18404 502.128 8.169C502.109 8.15807 502.089 8.14756 502.069 8.13747C502.041 8.12324 502.013 8.10964 501.984 8.09728C501.964 8.08862 501.944 8.07997 501.924 8.07193C501.893 8.05977 501.862 8.04885 501.83 8.03833C501.812 8.03257 501.794 8.02659 501.775 8.02144C501.739 8.01072 501.701 8.00124 501.664 7.9932C501.65 7.99052 501.637 7.98722 501.624 7.98475C501.578 7.97568 501.53 7.96888 501.483 7.96373C501.478 7.96332 501.474 7.96249 501.469 7.96208C501.133 7.92848 500.784 7.99237 500.47 8.17023L491.693 13.1344L485.417 9.58402L491.698 6.03058L495.887 8.39797C496.682 8.84745 497.7 8.58077 498.16 7.80112C498.619 7.02127 498.347 6.02378 497.551 5.57367L492.531 2.73598C492.016 2.44478 491.382 2.44478 490.867 2.73598L481.296 8.14942C481.034 8.28812 480.805 8.49565 480.645 8.76687C480.185 9.54695 480.458 10.544 481.254 10.9939L490.862 16.429C490.863 16.4298 490.864 16.43 490.866 16.4308C490.916 16.4591 490.968 16.4832 491.021 16.5058C491.036 16.5123 491.05 16.5205 491.065 16.5263C491.096 16.539 491.129 16.5479 491.162 16.5584C491.336 16.6159 491.514 16.6476 491.692 16.6476C491.692 16.6476 491.693 16.6476 491.694 16.6476C491.694 16.6476 491.695 16.6476 491.695 16.6476C491.877 16.6476 492.06 16.6149 492.237 16.5547C492.265 16.545 492.294 16.5378 492.322 16.5265C492.339 16.5199 492.355 16.5104 492.372 16.5031C492.423 16.4811 492.473 16.458 492.521 16.4308C492.523 16.43 492.524 16.4298 492.526 16.429L499.64 12.4052V19.5119L491.696 24.005L483.753 19.5119V15.0185C483.753 14.1181 483.007 13.3883 482.089 13.3883C481.17 13.3883 480.424 14.1181 480.424 15.0185V20.4531C480.424 21.0356 480.741 21.5735 481.256 21.8646L490.864 27.2995C491.121 27.4448 491.409 27.5176 491.696 27.5176C491.983 27.5176 492.271 27.4448 492.528 27.2995L502.136 21.8646C502.651 21.5735 502.968 21.0356 502.968 20.4531V9.58402C502.968 9.28683 502.885 9.00902 502.744 8.76895Z" fill="white"/>
<path fill-rule="evenodd" clip-rule="evenodd" d="M511.598 17.8919C512.154 18.2518 512.718 18.5188 513.29 18.6929C513.863 18.867 514.427 18.9541 514.982 18.9541C515.537 18.9541 515.986 18.8264 516.327 18.571C516.668 18.3156 516.839 17.9848 516.839 17.5786C516.839 17.2419 516.703 16.9779 516.431 16.7864C516.159 16.5949 515.818 16.4236 515.407 16.2728C514.997 16.1219 514.554 15.9681 514.08 15.8114C513.605 15.6547 513.163 15.4458 512.752 15.1846C512.342 14.9234 512 14.5781 511.729 14.1486C511.457 13.7191 511.321 13.1562 511.321 12.4598C511.321 11.9258 511.431 11.4383 511.65 10.9973C511.87 10.5562 512.177 10.176 512.57 9.85682C512.963 9.53763 513.435 9.29094 513.984 9.11688C514.534 8.94276 515.138 8.85569 515.798 8.85569C516.353 8.85569 516.905 8.90794 517.455 9.01238C518.004 9.11688 518.557 9.27938 519.112 9.49988V12.0419C518.591 11.7401 518.071 11.5167 517.55 11.3716C517.03 11.2265 516.515 11.1539 516.006 11.1539C515.474 11.1539 515.043 11.27 514.713 11.5021C514.383 11.7343 514.219 12.0419 514.219 12.4249C514.219 12.7499 514.355 13.0053 514.626 13.191C514.898 13.3768 515.237 13.5421 515.641 13.6873C516.046 13.8323 516.489 13.9832 516.969 14.1399C517.449 14.2966 517.891 14.5084 518.296 14.7754C518.701 15.0424 519.04 15.3935 519.311 15.8288C519.583 16.2641 519.719 16.8357 519.719 17.5438C519.719 18.0893 519.606 18.5913 519.381 19.0498C519.155 19.5083 518.843 19.9 518.444 20.225C518.045 20.5501 517.568 20.8025 517.012 20.9824C516.457 21.1623 515.85 21.2523 515.19 21.2523C513.976 21.2523 512.778 20.9911 511.598 20.4688V17.8919ZM520.563 8.52489H523.391V12.9473C524.143 12.4017 524.935 12.1289 525.768 12.1289C526.219 12.1289 526.636 12.2073 527.018 12.364C527.399 12.5207 527.729 12.7413 528.007 13.0256C528.284 13.31 528.501 13.6495 528.657 14.0441C528.813 14.4388 528.892 14.8683 528.892 15.3326V21.0434H526.063V15.8549C526.063 15.4951 525.95 15.1991 525.725 14.9669C525.499 14.7348 525.213 14.6187 524.866 14.6187C524.345 14.6187 523.854 14.8509 523.391 15.3151V21.0434H520.563V8.52489ZM530.047 12.3379H532.876V21.0434H530.047V12.3379ZM529.908 10.0223C529.908 9.55794 530.053 9.18363 530.342 8.89926C530.631 8.61484 531.007 8.47266 531.47 8.47266C531.91 8.47266 532.277 8.61484 532.572 8.89926C532.867 9.18363 533.014 9.55794 533.014 10.0223C533.014 10.4633 532.867 10.8289 532.572 11.1191C532.277 11.4093 531.91 11.5544 531.47 11.5544C531.007 11.5544 530.631 11.4093 530.342 11.1191C530.053 10.8289 529.908 10.4633 529.908 10.0223ZM540.018 16.6906C540.018 16.0522 539.859 15.5386 539.541 15.1498C539.222 14.7609 538.809 14.5665 538.3 14.5665C537.791 14.5665 537.334 14.7696 536.929 15.1759V18.2054C537.334 18.6116 537.791 18.8148 538.3 18.8148C538.809 18.8148 539.222 18.6174 539.541 18.2228C539.859 17.8281 540.018 17.3174 540.018 16.6906ZM534.101 12.3379H536.929V12.808C537.588 12.3553 538.265 12.1289 538.959 12.1289C539.538 12.1289 540.07 12.2421 540.556 12.4684C541.041 12.6948 541.458 13.0082 541.805 13.4086C542.152 13.8091 542.421 14.2879 542.612 14.8451C542.803 15.4022 542.898 16.0174 542.898 16.6906C542.898 17.3638 542.803 17.979 542.612 18.5362C542.421 19.0933 542.152 19.5721 541.805 19.9726C541.458 20.373 541.041 20.6864 540.556 20.9128C540.07 21.1391 539.538 21.2523 538.959 21.2523C538.265 21.2523 537.588 21.0259 536.929 20.5733V24.8563H534.101V12.3379ZM546.674 18.8148H548.53C548.97 18.8148 549.332 18.6842 549.615 18.423C549.898 18.1618 550.04 17.8281 550.04 17.4219C550.04 17.0156 549.898 16.6819 549.615 16.4208C549.332 16.1596 548.97 16.029 548.53 16.029H546.674V18.8148ZM546.674 13.8701H548.288C548.692 13.8701 549.028 13.7482 549.294 13.5044C549.56 13.2607 549.693 12.9531 549.693 12.5816C549.693 12.1986 549.56 11.8881 549.294 11.6501C549.028 11.4122 548.692 11.2933 548.288 11.2933H546.674V13.8701ZM543.915 9.06463H548.826C549.358 9.06463 549.844 9.14588 550.283 9.30838C550.723 9.47088 551.104 9.69726 551.428 9.98738C551.752 10.2776 552.004 10.62 552.183 11.0146C552.362 11.4093 552.452 11.8388 552.452 12.3031C552.452 12.8951 552.313 13.4232 552.035 13.8874C551.758 14.3518 551.376 14.6942 550.891 14.9147C551.515 15.1469 551.998 15.5096 552.339 16.0029C552.681 16.4962 552.851 17.0621 552.851 17.7004C552.851 18.1879 552.759 18.6378 552.574 19.0498C552.389 19.4619 552.131 19.8159 551.801 20.1119C551.472 20.4079 551.079 20.6371 550.622 20.7996C550.164 20.9621 549.664 21.0434 549.12 21.0434H543.915V9.06463ZM553.192 16.6906C553.192 16.0174 553.307 15.4022 553.538 14.8451C553.77 14.2879 554.093 13.8091 554.51 13.4086C554.927 13.0082 555.421 12.6948 555.994 12.4684C556.566 12.2421 557.194 12.1289 557.876 12.1289C558.559 12.1289 559.187 12.2421 559.759 12.4684C560.332 12.6948 560.823 13.0082 561.234 13.4086C561.645 13.8091 561.966 14.2879 562.197 14.8451C562.428 15.4022 562.544 16.0174 562.544 16.6906C562.544 17.3523 562.428 17.9645 562.197 18.5274C561.966 19.0904 561.645 19.5721 561.234 19.9726C560.823 20.373 560.332 20.6864 559.759 20.9128C559.187 21.1391 558.559 21.2523 557.876 21.2523C557.194 21.2523 556.566 21.1391 555.994 20.9128C555.421 20.6864 554.927 20.373 554.51 19.9726C554.093 19.5721 553.77 19.0904 553.538 18.5274C553.307 17.9645 553.192 17.3523 553.192 16.6906ZM556.089 16.6906C556.089 17.3523 556.254 17.8833 556.584 18.2837C556.913 18.6842 557.344 18.8844 557.876 18.8844C558.397 18.8844 558.825 18.6842 559.161 18.2837C559.496 17.8833 559.664 17.3523 559.664 16.6906C559.664 16.029 559.496 15.4979 559.161 15.0975C558.825 14.6971 558.397 14.4968 557.876 14.4968C557.344 14.4968 556.913 14.6971 556.584 15.0975C556.254 15.4979 556.089 16.029 556.089 16.6906ZM569.148 16.6906C569.148 16.0522 568.989 15.5386 568.671 15.1498C568.353 14.7609 567.94 14.5665 567.431 14.5665C566.921 14.5665 566.465 14.7696 566.06 15.1759V18.2054C566.465 18.6116 566.921 18.8148 567.431 18.8148C567.94 18.8148 568.353 18.6174 568.671 18.2228C568.989 17.8281 569.148 17.3174 569.148 16.6906ZM563.231 8.52489H566.06V12.808C566.719 12.3553 567.396 12.1289 568.09 12.1289C568.668 12.1289 569.2 12.2421 569.686 12.4684C570.172 12.6948 570.589 13.0082 570.936 13.4086C571.283 13.8091 571.552 14.2879 571.742 14.8451C571.934 15.4022 572.029 16.0174 572.029 16.6906C572.029 17.3638 571.934 17.979 571.742 18.5362C571.552 19.0933 571.283 19.5721 570.936 19.9726C570.589 20.373 570.172 20.6864 569.686 20.9128C569.2 21.1391 568.668 21.2523 568.09 21.2523C567.396 21.2523 566.719 21.0259 566.06 20.5733V21.0434H563.231V8.52489Z" fill="white"/>
</g>
<g clip-path="url(#clip3_636_17059)">
<path d="M742.754 19.8454C738.094 19.8454 734.303 16.06 734.303 11.4071V2.96875H751.203V11.4071C751.203 16.0594 747.412 19.8454 742.754 19.8454ZM735.84 4.50299V11.4071C735.84 15.2135 738.941 18.3112 742.754 18.3112C746.565 18.3112 749.667 15.214 749.667 11.4071V4.50299H735.84Z" fill="white"/>
<path d="M746.594 8.08203H738.913V9.61627H739.963L739.431 13.8676H740.979L741.512 9.61627H743.995L744.528 13.8676H746.076L745.544 9.61627H746.594V8.08203Z" fill="white"/>
<path d="M655.674 5.50442C660.207 5.50442 662.625 7.61657 662.625 10.6339C662.625 13.0483 660.811 14.8587 658.394 15.523V15.5834C662.171 16.5188 663.531 18.7214 663.531 21.0453C663.531 24.3644 661.113 26.6279 656.581 26.6279H646.609V26.0244C648.423 26.0244 648.423 26.0244 648.423 24.0626V8.06916C648.423 6.10738 648.423 6.10738 646.609 6.10738V5.50391H655.674V5.50442ZM653.861 15.4622C656.581 15.4622 657.638 13.6518 657.638 10.7847C657.638 8.21952 656.581 6.10738 654.768 6.10738H653.257V15.4622H653.861ZM653.257 16.0657V26.0244H655.372C657.789 26.0244 658.545 23.6101 658.545 20.8944C658.545 18.1788 657.185 16.0662 654.466 16.0662H653.257V16.0657Z" fill="white"/>
<path d="M664.738 19.2353C664.738 14.1053 668.968 11.2383 672.745 11.2383C676.22 11.2383 679.362 12.7469 678.456 17.8769H669.512C669.512 21.9509 671.838 23.4595 674.105 23.4595C676.825 23.4595 678.033 21.9509 678.638 20.8943H678.94C678.336 23.9116 676.22 26.9295 672.443 26.9295C667.457 26.9299 664.738 23.3092 664.738 19.2353ZM669.512 17.2734H673.954C674.468 15.2217 674.891 11.8417 672.594 11.8417C670.872 11.8417 669.633 13.4414 669.512 17.2734Z" fill="white"/>
<path d="M691.327 15.4626C691.327 14.1048 690.421 13.6522 689.514 13.6522C688.578 13.6522 687.55 14.1048 686.493 15.01V24.0625C686.493 26.0243 686.493 26.0243 688.306 26.0243V26.6278H679.845V26.0243C681.658 26.0243 681.658 26.0243 681.658 24.0625V14.5574C681.658 13.0487 681.658 13.0487 680.147 13.0487V12.5961L686.341 11.2383H686.583L686.492 14.4065H686.553C687.701 12.4453 689.877 11.2383 692.083 11.2383C694.107 11.2383 696.162 12.4453 696.162 15.7649V24.0636C696.162 26.0253 696.162 26.0253 697.975 26.0253V26.6288H690.119V26.0253C691.327 26.0253 691.327 26.0253 691.327 24.0636V15.4626Z" fill="white"/>
<path d="M707.945 23.46C710.665 23.46 711.873 21.9514 712.477 20.8948H712.78C712.175 23.9121 710.06 26.9299 706.283 26.9299C701.297 26.9299 698.578 23.3092 698.578 19.2353C698.578 14.1053 702.808 11.2383 706.585 11.2383C710.362 11.2383 712.357 13.0793 712.357 15.0104C712.357 16.066 711.874 17.1226 710.061 17.1226C708.55 17.1226 708.217 16.1872 708.247 15.5536C708.399 13.3504 708.247 11.8417 706.434 11.8417C704.319 11.8417 703.352 14.6484 703.352 18.1485C703.352 22.1022 705.679 23.46 707.945 23.46Z" fill="white"/>
<path d="M725.167 15.463C725.167 14.1051 724.261 13.6526 723.354 13.6526C722.418 13.6526 721.39 14.1051 720.333 15.0104V24.063C720.333 26.0247 720.333 26.0247 722.146 26.0247V26.6282H713.685V26.0247C715.498 26.0247 715.498 26.0247 715.498 24.063V6.71217C715.498 5.20299 715.498 5.20299 713.988 5.20299V4.75038L720.092 3.39258H720.333V14.4069H720.394C721.542 12.4456 723.717 11.2387 725.924 11.2387C727.948 11.2387 730.003 12.4456 730.003 15.7652V24.0639C730.003 26.0258 730.003 26.0258 731.817 26.0258V26.6292H723.959V26.0258C725.167 26.0258 725.167 26.0258 725.167 24.0639V15.463Z" fill="white"/>
</g>
<g clip-path="url(#clip4_636_17059)">
<path fill-rule="evenodd" clip-rule="evenodd" d="M834.984 13.3651C834.805 13.2055 834.554 13.1521 834.325 13.2245L828.094 15.1908L836.998 6.67327C837.272 6.41042 837.282 5.97478 837.019 5.70033C837.006 5.68718 836.994 5.67443 836.98 5.66245L833.655 2.69223C833.372 2.43904 832.937 2.46417 832.684 2.74789C832.655 2.78075 832.629 2.81592 832.607 2.85342L825.371 15.0037C825.241 15.2217 825.284 15.5016 825.474 15.6705L826.884 16.9322C827.057 17.0868 827.297 17.1429 827.521 17.0806L832.57 15.6736L826.759 24.8042C826.478 25.2453 827.06 25.723 827.437 25.3612L837.145 16.0555C837.355 15.8526 837.361 15.5171 837.158 15.3064C837.149 15.2971 837.14 15.2882 837.13 15.2793L834.984 13.3651Z" fill="white"/>
<path fill-rule="evenodd" clip-rule="evenodd" d="M880.303 12.062L879.339 11.2024C879.209 11.0856 879.008 11.0969 878.891 11.2277C878.865 11.2574 878.844 11.2916 878.83 11.329L876.848 16.6771C875.898 19.2392 874.772 20.1163 874.066 20.1163C873.841 20.1163 873.52 19.9523 873.52 19.4059C873.52 19.2201 873.552 18.8275 873.782 18.207L875.671 13.1156C875.809 12.744 875.705 12.3261 875.409 12.0624L874.445 11.2024C874.314 11.0856 874.113 11.0969 873.996 11.2277C873.97 11.2574 873.949 11.2916 873.935 11.329L871.953 16.6771C871.004 19.2392 869.878 20.1163 869.173 20.1163C868.947 20.1163 868.625 19.9523 868.625 19.4059C868.625 19.2201 868.659 18.8275 868.888 18.207L873.012 7.07386C873.15 6.70267 873.046 6.28475 872.751 6.02068L871.786 5.16068C871.655 5.04384 871.455 5.05552 871.338 5.186C871.311 5.2156 871.291 5.25027 871.277 5.28727L867.056 16.6771C866.756 17.486 866.615 18.3087 866.615 18.7877C866.615 20.408 867.709 21.3381 868.887 21.3381C869.771 21.3381 870.746 20.773 871.629 19.6095C871.932 20.713 872.824 21.3381 873.782 21.3381C874.315 21.3381 874.883 21.1297 875.445 20.7118L874.056 24.4548C872.621 23.7747 870.982 23.6579 869.465 24.1284C869.28 24.1849 869.318 24.4548 869.509 24.4735C871.484 24.6593 873.11 25.513 874.309 27.1173C874.525 27.4032 874.931 27.4605 875.217 27.2451C875.316 27.1707 875.391 27.0698 875.434 26.9538L880.564 13.1172C880.703 12.7452 880.6 12.3265 880.303 12.062Z" fill="white"/>
<path fill-rule="evenodd" clip-rule="evenodd" d="M859.613 20.1084C859.227 20.1084 858.938 19.7282 858.938 19.1618C858.938 18.9725 858.997 18.5217 859.229 17.8898C860.555 14.4318 862.358 12.555 863.167 12.555C863.701 12.555 863.783 13.111 863.783 13.7734C863.783 16.4726 861.375 20.1064 859.613 20.1064V20.1084ZM863.905 10.9413C862.951 10.9413 862.063 11.4893 861.27 12.326L863.295 6.8173C863.435 6.43868 863.33 6.01282 863.031 5.74413L862.055 4.86743C861.923 4.74837 861.72 4.75988 861.603 4.89323C861.576 4.92339 861.555 4.95832 861.541 4.99642L857.279 16.602C856.976 17.4267 856.834 18.2645 856.834 18.7527C856.834 20.3243 857.935 21.3514 859.431 21.3514C862.961 21.3514 866.146 17.1663 866.146 13.7908C866.144 12.1378 865.348 10.9413 863.905 10.9413Z" fill="white"/>
<path fill-rule="evenodd" clip-rule="evenodd" d="M850.595 20.1084C850.208 20.1084 849.919 19.7282 849.919 19.1618C849.919 18.9725 849.979 18.5217 850.211 17.8898C851.538 14.4318 853.344 12.555 854.154 12.555C854.689 12.555 854.771 13.111 854.771 13.7734C854.77 16.4726 852.362 20.1064 850.595 20.1064L850.595 20.1084ZM852.255 12.326L854.282 6.8173C854.422 6.43868 854.317 6.01282 854.018 5.74413L853.041 4.86743C852.908 4.74837 852.706 4.75988 852.587 4.89323C852.561 4.92339 852.54 4.95832 852.526 4.99642L848.258 16.602C847.296 19.2122 846.159 20.1064 845.445 20.1064C845.217 20.1064 844.892 19.9397 844.892 19.3825C844.892 19.1932 844.926 18.7932 845.158 18.1609L847.066 12.9729C847.206 12.5947 847.101 12.1684 846.802 11.8993L845.827 11.023C845.695 10.9043 845.491 10.9158 845.373 11.0488C845.347 11.0794 845.326 11.1139 845.312 11.1524L843.307 16.602C842.347 19.2127 841.209 20.1064 840.495 20.1064C840.267 20.1064 839.942 19.9397 839.942 19.3825C839.942 19.1932 839.975 18.7932 840.207 18.1609L842.115 12.9729C842.255 12.5947 842.15 12.1688 841.85 11.8997L840.876 11.0234C840.744 10.9048 840.541 10.9163 840.423 11.0492C840.396 11.0794 840.375 11.1147 840.361 11.1528L838.357 16.602C838.054 17.4267 837.912 18.2645 837.912 18.7527C837.912 20.4041 839.017 21.3514 840.209 21.3514C841.102 21.3514 842.088 20.7755 842.981 19.5905C843.287 20.7148 844.189 21.3514 845.157 21.3514C846.053 21.3514 847.043 20.7723 847.936 19.5802C848.256 20.6703 849.198 21.3514 850.409 21.3514C853.944 21.3514 857.135 17.1663 857.135 13.7908C857.134 12.1378 856.337 10.9413 854.893 10.9413C853.937 10.9413 853.049 11.4893 852.255 12.326Z" fill="white"/>
</g>
<g clip-path="url(#clip5_636_17059)">
<path fill-rule="evenodd" clip-rule="evenodd" d="M969.092 2.68932C968.978 2.823 968.971 2.99817 968.955 6.54632C968.945 8.80002 968.914 10.2637 968.879 10.2637C968.847 10.2637 968.77 10.2074 968.708 10.1388C968.58 9.99511 967.912 9.55538 967.428 9.29521C966.145 8.60569 963.95 8.24378 962.403 8.46684C961.282 8.62804 959.329 9.36545 958.879 9.79679C958.81 9.86303 958.556 10.0518 958.314 10.2166C957.894 10.5031 956.465 11.9719 956.465 12.1168C956.465 12.1543 956.305 12.432 956.11 12.734C955.528 13.6362 955.269 14.3174 954.914 15.8836C954.636 17.1098 954.757 19.1157 955.212 20.8378C955.386 21.4943 956.212 23.1327 956.414 23.2212C956.442 23.2332 956.465 23.2744 956.465 23.3122C956.465 23.5457 957.598 24.7571 958.408 25.3895C960.599 27.0998 963.94 27.6102 966.471 26.621C967.15 26.3561 968.375 25.6924 968.682 25.4239L968.91 25.224L968.941 25.9853C968.969 26.6753 968.986 26.7627 969.124 26.9178L969.276 27.0895H970.669C971.947 27.0895 972.074 27.0791 972.21 26.9621L972.357 26.8353V15.5592C972.357 5.62297 972.347 4.27186 972.263 4.18687C972.212 4.1338 971.972 3.97977 971.731 3.84411C971.489 3.70844 971.235 3.54524 971.167 3.48099C970.362 2.73401 969.375 2.35733 969.092 2.68932ZM1021.77 2.67097C1021.68 2.77471 1021.67 2.96864 1021.67 3.98616C1021.67 5.34644 1021.66 5.33169 1022.18 5.68243C1022.36 5.80533 1022.57 5.95736 1022.63 6.0204C1022.7 6.08344 1022.91 6.22111 1023.1 6.32606C1023.29 6.431 1023.64 6.65685 1023.88 6.82763C1024.44 7.23584 1024.77 7.24781 1024.96 6.86714C1025.1 6.58462 1025.09 3.02929 1024.96 2.74559L1024.86 2.54926H1023.37C1022 2.54926 1021.86 2.55964 1021.77 2.67097ZM1058.81 2.59435C1057.92 2.71406 1056.42 3.19409 1055.66 3.59951C1055.46 3.70525 1055.22 3.81219 1055.13 3.83652C1054.93 3.8896 1053.73 4.73513 1053.11 5.26105C1052.3 5.95057 1050.99 7.48563 1050.69 8.09694C1050.48 8.5231 1050.18 9.06777 1050.13 9.0973C1050.05 9.14918 1049.46 10.6695 1049.31 11.195C1048.75 13.2209 1048.75 13.2112 1048.75 19.397V24.7559L1048.9 25.198C1048.98 25.4414 1049.12 25.7195 1049.2 25.8162C1049.28 25.9131 1049.4 26.0699 1049.45 26.1653C1049.6 26.4119 1050.21 26.8221 1050.64 26.9665C1051.16 27.1353 1060.5 27.1541 1061.6 26.9881C1063.37 26.7228 1065.55 25.8221 1066.77 24.8561C1066.98 24.692 1067.21 24.5325 1067.28 24.5013C1067.35 24.4698 1067.67 24.1789 1067.99 23.8549C1068.31 23.5305 1068.6 23.2552 1068.63 23.2428C1068.66 23.2304 1068.91 22.9324 1069.17 22.5804C1069.44 22.2285 1069.72 21.871 1069.79 21.7863C1069.86 21.7018 1070.03 21.4165 1070.16 21.1523C1070.29 20.8878 1070.43 20.6268 1070.47 20.5717C1070.52 20.5162 1070.7 20.1568 1070.87 19.7725C1072.13 16.8919 1072.18 12.9571 1070.97 10.0302C1070.78 9.55498 1070.58 9.12164 1070.54 9.06658C1070.49 9.01191 1070.35 8.75254 1070.23 8.49078C1069.76 7.50638 1068.18 5.65051 1067.21 4.94941C1067.04 4.82452 1066.76 4.61224 1066.59 4.47657C1064.82 3.08795 1061.36 2.25159 1058.81 2.59435ZM1061.19 7.17478C1062.56 7.55227 1063.65 8.72381 1064.01 10.1934C1064.18 10.8718 1064.15 15.1206 1063.98 15.7431C1063.84 16.247 1063.67 16.6305 1063.5 16.8595C1062.69 17.9122 1062.18 18.3184 1061.27 18.6085C1059.43 19.1967 1057.24 17.9453 1056.66 15.9697C1056.47 15.3377 1056.37 11.2712 1056.52 10.4568C1056.96 8.05703 1059.06 6.58462 1061.19 7.17478ZM982.702 8.37745C981.356 8.49557 979.223 9.29761 978.49 9.9616C978.358 10.0805 978.154 10.2309 978.035 10.2956C977.615 10.5246 976.357 11.9875 976.002 12.6578C974.961 14.6278 974.646 15.805 974.646 17.7251C974.646 25.787 983.646 30.0909 989.314 24.7395C991.248 22.9132 991.326 22.5078 989.808 22.1443C989.382 22.0426 988.773 21.8862 988.454 21.7976C987.592 21.5573 987.444 21.5728 987.048 21.946C985.177 23.7089 982.531 23.9216 980.508 22.4719C979.523 21.766 978.694 20.6946 978.44 19.8004L978.357 19.5079H985.115H991.873L992.076 19.3072L992.278 19.1065L992.243 17.761C992.223 16.9757 992.171 16.2355 992.117 15.9833C992.068 15.7455 991.981 15.3265 991.923 15.052C991.808 14.4994 991.279 13.2728 990.934 12.7576C990.811 12.5748 990.693 12.3653 990.672 12.292C990.598 12.0326 989.282 10.5932 988.846 10.294C988.673 10.1759 988.427 9.98952 988.298 9.87979C987.173 8.92492 984.536 8.21704 982.702 8.37745ZM1000.95 8.46883C1000.41 8.51911 999.504 8.74576 999.217 8.90297C999.119 8.95644 998.995 9.00034 998.941 9.00034C998.15 9.00034 996.153 11.0011 995.397 12.5505C994.475 14.4387 994.449 14.688 994.471 21.3925L994.488 26.7687L994.664 26.929C994.89 27.1353 997.399 27.1824 997.683 26.9857C997.935 26.8097 997.935 26.8093 997.968 20.9711L997.999 15.285L998.191 14.7822C998.297 14.5057 998.542 14.0568 998.735 13.7846C999.372 12.8849 999.318 12.9344 1000.22 12.434C1001.19 11.9009 1002.23 11.946 1003.17 12.5617C1003.42 12.7245 1003.64 12.8573 1003.67 12.8573C1003.9 12.8573 1004.82 14.315 1005.02 15.0101C1005.28 15.8748 1005.3 16.3396 1005.3 21.7066C1005.3 26.7383 1005.3 26.8002 1005.43 26.9438C1005.64 27.1816 1008.22 27.1688 1008.48 26.929L1008.66 26.7687L1008.69 21.193L1008.73 15.6174L1008.92 14.9857C1010.12 11.0685 1014.51 11.1399 1015.82 15.0983L1015.99 15.6174L1016.02 21.2437C1016.05 25.8768 1016.07 26.8891 1016.14 26.9797C1016.3 27.1808 1019.09 27.1413 1019.27 26.9354L1019.41 26.7818V21.1946C1019.41 14.8976 1019.42 15.0245 1018.94 13.5584C1018.53 12.2947 1017.57 10.7517 1016.9 10.2928C1016.78 10.2098 1016.56 10.0238 1016.41 9.88019C1015.23 8.74217 1012.57 8.13126 1010.86 8.6049C1009.39 9.0143 1008.43 9.58811 1007.42 10.6735L1006.94 11.1922L1006.67 10.8574C1005.35 9.20863 1003.09 8.26812 1000.95 8.46883ZM1022.06 8.44848C1021.64 8.53507 1021.67 7.80725 1021.67 17.8161V26.8137L1021.83 26.9518C1022 27.0903 1024.46 27.1712 1024.77 27.0479C1025.06 26.9287 1025.05 27.2076 1025.05 17.7789C1025.05 8.10611 1025.07 8.61487 1024.7 8.46524C1024.55 8.40379 1022.34 8.38983 1022.06 8.44848ZM1034.61 8.53108C1033.84 8.67633 1032.74 9.04343 1032.2 9.33393C1031.77 9.55858 1031.12 9.98035 1031.07 10.0633C1031.05 10.0893 1030.91 10.1942 1030.76 10.2956C1030.6 10.3973 1030.21 10.7684 1029.89 11.1204C1027.76 13.4367 1026.96 16.19 1027.44 19.5745C1027.77 21.928 1029.68 24.7471 1031.7 25.8808C1032.54 26.3512 1032.72 26.4374 1033.31 26.6557C1036.43 27.7921 1040.03 26.8807 1042.42 24.3533C1044.41 22.248 1045.41 18.6516 1044.78 15.8836C1044.42 14.321 1044.2 13.7072 1043.68 12.8909C1043.52 12.6346 1043.31 12.2907 1043.22 12.1259C1042.98 11.7026 1041.89 10.5721 1041.27 10.1216C1039.32 8.69069 1036.87 8.10452 1034.61 8.53108ZM1059.58 8.47282C1058.87 8.65199 1058.17 9.32355 1057.91 10.0889L1057.75 10.5629V12.8909C1057.75 15.1541 1057.75 15.2303 1057.89 15.6505C1058.62 17.8224 1061.59 18.0128 1062.56 15.9498C1062.85 15.3472 1062.86 15.1586 1062.84 12.7233L1062.82 10.4301L1062.63 9.9979C1062.08 8.77768 1060.84 8.15719 1059.58 8.47282ZM1060.7 11.288L1060.91 11.5142V13.2352C1060.91 14.7479 1060.9 14.9758 1060.81 15.1206C1060.54 15.5328 1060.2 15.5712 1059.87 15.2252L1059.66 14.9989V13.2563V11.5142L1059.87 11.288C1060.02 11.1252 1060.14 11.0617 1060.28 11.0617C1060.43 11.0617 1060.55 11.1252 1060.7 11.288ZM964.821 12.1882C968.641 13.23 970.202 17.8887 967.842 21.2038C967.396 21.8303 967.231 21.993 966.436 22.594C964.402 24.1306 961.233 23.6055 959.451 21.4364C956.096 17.3528 959.878 10.8398 964.821 12.1882ZM984.833 12.1921C986.455 12.7225 987.742 13.892 988.343 15.382L988.559 15.9167H983.454H978.35L978.435 15.6609C978.612 15.129 979.033 14.3788 979.317 14.0879C979.389 14.0145 979.509 13.8688 979.585 13.7636C980.557 12.416 983.146 11.6407 984.833 12.1921ZM1037.5 12.2273C1038.57 12.5572 1039.17 12.93 1039.92 13.7412C1043.74 17.8403 1040.16 24.6039 1034.85 23.3075C1033.97 23.0916 1033.65 22.918 1032.63 22.1024C1031.11 20.8845 1030.41 18.4465 1030.94 16.2538C1031.68 13.2404 1034.72 11.3742 1037.5 12.2273ZM1066.72 16.6748C1066.83 16.7994 1066.93 16.9657 1066.93 17.0452C1066.93 17.4202 1066.26 19.2067 1066.06 19.3751C1066.04 19.393 1065.84 19.6476 1065.62 19.9401C1065.41 20.2329 1065.14 20.547 1065.02 20.6384C1064.91 20.7302 1064.61 20.9731 1064.35 21.179C1063.66 21.7425 1063.01 22.0445 1061.76 22.4012C1060.22 22.8382 1057.77 22.3721 1056.44 21.3878C1055.52 20.7102 1054.44 19.5319 1054.3 19.0422C1054.27 18.9509 1054.16 18.6799 1054.04 18.4397C1053.5 17.2902 1053.59 16.6816 1054.3 16.6816C1054.65 16.6816 1054.79 16.8253 1054.96 17.3707C1055.04 17.6133 1055.19 17.9856 1055.31 18.1979C1055.42 18.4102 1055.52 18.6078 1055.52 18.6369C1055.52 18.8942 1056.81 20.1747 1057.35 20.4604C1060.66 22.1962 1064.49 20.8 1065.52 17.4796C1065.84 16.437 1066.24 16.1701 1066.72 16.6748Z" fill="white"/>
<path fill-rule="evenodd" clip-rule="evenodd" d="M969.092 2.68932C968.978 2.823 968.971 2.99817 968.955 6.54632C968.945 8.80002 968.914 10.2637 968.879 10.2637C968.847 10.2637 968.77 10.2074 968.708 10.1388C968.58 9.99511 967.912 9.55538 967.428 9.29521C966.145 8.60569 963.95 8.24378 962.403 8.46684C961.282 8.62804 959.329 9.36545 958.879 9.79679C958.81 9.86303 958.556 10.0518 958.314 10.2166C957.894 10.5031 956.465 11.9719 956.465 12.1168C956.465 12.1543 956.305 12.432 956.11 12.734C955.528 13.6362 955.269 14.3174 954.914 15.8836C954.636 17.1098 954.757 19.1157 955.212 20.8378C955.386 21.4943 956.212 23.1327 956.414 23.2212C956.442 23.2332 956.465 23.2744 956.465 23.3122C956.465 23.5457 957.598 24.7571 958.408 25.3895C960.599 27.0998 963.94 27.6102 966.471 26.621C967.15 26.3561 968.375 25.6924 968.682 25.4239L968.91 25.224L968.941 25.9853C968.969 26.6753 968.986 26.7627 969.124 26.9178L969.276 27.0895H970.669C971.947 27.0895 972.074 27.0791 972.21 26.9621L972.357 26.8353V15.5592C972.357 5.62297 972.347 4.27186 972.263 4.18687C972.212 4.1338 971.972 3.97977 971.731 3.84411C971.489 3.70844 971.235 3.54524 971.167 3.48099C970.362 2.73401 969.375 2.35733 969.092 2.68932ZM1021.77 2.67097C1021.68 2.77471 1021.67 2.96864 1021.67 3.98616C1021.67 5.34644 1021.66 5.33169 1022.18 5.68243C1022.36 5.80533 1022.57 5.95736 1022.63 6.0204C1022.7 6.08344 1022.91 6.22111 1023.1 6.32606C1023.29 6.431 1023.64 6.65685 1023.88 6.82763C1024.44 7.23584 1024.77 7.24781 1024.96 6.86714C1025.1 6.58462 1025.09 3.02929 1024.96 2.74559L1024.86 2.54926H1023.37C1022 2.54926 1021.86 2.55964 1021.77 2.67097ZM1058.81 2.59435C1057.92 2.71406 1056.42 3.19409 1055.66 3.59951C1055.46 3.70525 1055.22 3.81219 1055.13 3.83652C1054.93 3.8896 1053.73 4.73513 1053.11 5.26105C1052.3 5.95057 1050.99 7.48563 1050.69 8.09694C1050.48 8.5231 1050.18 9.06777 1050.13 9.0973C1050.05 9.14918 1049.46 10.6695 1049.31 11.195C1048.75 13.2209 1048.75 13.2112 1048.75 19.397V24.7559L1048.9 25.198C1048.98 25.4414 1049.12 25.7195 1049.2 25.8162C1049.28 25.9131 1049.4 26.0699 1049.45 26.1653C1049.6 26.4119 1050.21 26.8221 1050.64 26.9665C1051.16 27.1353 1060.5 27.1541 1061.6 26.9881C1063.37 26.7228 1065.55 25.8221 1066.77 24.8561C1066.98 24.692 1067.21 24.5325 1067.28 24.5013C1067.35 24.4698 1067.67 24.1789 1067.99 23.8549C1068.31 23.5305 1068.6 23.2552 1068.63 23.2428C1068.66 23.2304 1068.91 22.9324 1069.17 22.5804C1069.44 22.2285 1069.72 21.871 1069.79 21.7863C1069.86 21.7018 1070.03 21.4165 1070.16 21.1523C1070.29 20.8878 1070.43 20.6268 1070.47 20.5717C1070.52 20.5162 1070.7 20.1568 1070.87 19.7725C1072.13 16.8919 1072.18 12.9571 1070.97 10.0302C1070.78 9.55498 1070.58 9.12164 1070.54 9.06658C1070.49 9.01191 1070.35 8.75254 1070.23 8.49078C1069.76 7.50638 1068.18 5.65051 1067.21 4.94941C1067.04 4.82452 1066.76 4.61224 1066.59 4.47657C1064.82 3.08795 1061.36 2.25159 1058.81 2.59435ZM1061.19 7.17478C1062.56 7.55227 1063.65 8.72381 1064.01 10.1934C1064.18 10.8718 1064.15 15.1206 1063.98 15.7431C1063.84 16.247 1063.67 16.6305 1063.5 16.8595C1062.69 17.9122 1062.18 18.3184 1061.27 18.6085C1059.43 19.1967 1057.24 17.9453 1056.66 15.9697C1056.47 15.3377 1056.37 11.2712 1056.52 10.4568C1056.96 8.05703 1059.06 6.58462 1061.19 7.17478ZM982.702 8.37745C981.356 8.49557 979.223 9.29761 978.49 9.9616C978.358 10.0805 978.154 10.2309 978.035 10.2956C977.615 10.5246 976.357 11.9875 976.002 12.6578C974.961 14.6278 974.646 15.805 974.646 17.7251C974.646 25.787 983.646 30.0909 989.314 24.7395C991.248 22.9132 991.326 22.5078 989.808 22.1443C989.382 22.0426 988.773 21.8862 988.454 21.7976C987.592 21.5573 987.444 21.5728 987.048 21.946C985.177 23.7089 982.531 23.9216 980.508 22.4719C979.523 21.766 978.694 20.6946 978.44 19.8004L978.357 19.5079H985.115H991.873L992.076 19.3072L992.278 19.1065L992.243 17.761C992.223 16.9757 992.171 16.2355 992.117 15.9833C992.068 15.7455 991.981 15.3265 991.923 15.052C991.808 14.4994 991.279 13.2728 990.934 12.7576C990.811 12.5748 990.693 12.3653 990.672 12.292C990.598 12.0326 989.282 10.5932 988.846 10.294C988.673 10.1759 988.427 9.98952 988.298 9.87979C987.173 8.92492 984.536 8.21704 982.702 8.37745ZM1000.95 8.46883C1000.41 8.51911 999.504 8.74576 999.217 8.90297C999.119 8.95644 998.995 9.00034 998.941 9.00034C998.15 9.00034 996.153 11.0011 995.397 12.5505C994.475 14.4387 994.449 14.688 994.471 21.3925L994.488 26.7687L994.664 26.929C994.89 27.1353 997.399 27.1824 997.683 26.9857C997.935 26.8097 997.935 26.8093 997.968 20.9711L997.999 15.285L998.191 14.7822C998.297 14.5057 998.542 14.0568 998.735 13.7846C999.372 12.8849 999.318 12.9344 1000.22 12.434C1001.19 11.9009 1002.23 11.946 1003.17 12.5617C1003.42 12.7245 1003.64 12.8573 1003.67 12.8573C1003.9 12.8573 1004.82 14.315 1005.02 15.0101C1005.28 15.8748 1005.3 16.3396 1005.3 21.7066C1005.3 26.7383 1005.3 26.8002 1005.43 26.9438C1005.64 27.1816 1008.22 27.1688 1008.48 26.929L1008.66 26.7687L1008.69 21.193L1008.73 15.6174L1008.92 14.9857C1010.12 11.0685 1014.51 11.1399 1015.82 15.0983L1015.99 15.6174L1016.02 21.2437C1016.05 25.8768 1016.07 26.8891 1016.14 26.9797C1016.3 27.1808 1019.09 27.1413 1019.27 26.9354L1019.41 26.7818V21.1946C1019.41 14.8976 1019.42 15.0245 1018.94 13.5584C1018.53 12.2947 1017.57 10.7517 1016.9 10.2928C1016.78 10.2098 1016.56 10.0238 1016.41 9.88019C1015.23 8.74217 1012.57 8.13126 1010.86 8.6049C1009.39 9.0143 1008.43 9.58811 1007.42 10.6735L1006.94 11.1922L1006.67 10.8574C1005.35 9.20863 1003.09 8.26812 1000.95 8.46883ZM1022.06 8.44848C1021.64 8.53507 1021.67 7.80725 1021.67 17.8161V26.8137L1021.83 26.9518C1022 27.0903 1024.46 27.1712 1024.77 27.0479C1025.06 26.9287 1025.05 27.2076 1025.05 17.7789C1025.05 8.10611 1025.07 8.61487 1024.7 8.46524C1024.55 8.40379 1022.34 8.38983 1022.06 8.44848ZM1034.61 8.53108C1033.84 8.67633 1032.74 9.04343 1032.2 9.33393C1031.77 9.55858 1031.12 9.98035 1031.07 10.0633C1031.05 10.0893 1030.91 10.1942 1030.76 10.2956C1030.6 10.3973 1030.21 10.7684 1029.89 11.1204C1027.76 13.4367 1026.96 16.19 1027.44 19.5745C1027.77 21.928 1029.68 24.7471 1031.7 25.8808C1032.54 26.3512 1032.72 26.4374 1033.31 26.6557C1036.43 27.7921 1040.03 26.8807 1042.42 24.3533C1044.41 22.248 1045.41 18.6516 1044.78 15.8836C1044.42 14.321 1044.2 13.7072 1043.68 12.8909C1043.52 12.6346 1043.31 12.2907 1043.22 12.1259C1042.98 11.7026 1041.89 10.5721 1041.27 10.1216C1039.32 8.69069 1036.87 8.10452 1034.61 8.53108ZM1059.58 8.47282C1058.87 8.65199 1058.17 9.32355 1057.91 10.0889L1057.75 10.5629V12.8909C1057.75 15.1541 1057.75 15.2303 1057.89 15.6505C1058.62 17.8224 1061.59 18.0128 1062.56 15.9498C1062.85 15.3472 1062.86 15.1586 1062.84 12.7233L1062.82 10.4301L1062.63 9.9979C1062.08 8.77768 1060.84 8.15719 1059.58 8.47282ZM1060.7 11.288L1060.91 11.5142V13.2352C1060.91 14.7479 1060.9 14.9758 1060.81 15.1206C1060.54 15.5328 1060.2 15.5712 1059.87 15.2252L1059.66 14.9989V13.2563V11.5142L1059.87 11.288C1060.02 11.1252 1060.14 11.0617 1060.28 11.0617C1060.43 11.0617 1060.55 11.1252 1060.7 11.288ZM964.821 12.1882C968.641 13.23 970.202 17.8887 967.842 21.2038C967.396 21.8303 967.231 21.993 966.436 22.594C964.402 24.1306 961.233 23.6055 959.451 21.4364C956.096 17.3528 959.878 10.8398 964.821 12.1882ZM984.833 12.1921C986.455 12.7225 987.742 13.892 988.343 15.382L988.559 15.9167H983.454H978.35L978.435 15.6609C978.612 15.129 979.033 14.3788 979.317 14.0879C979.389 14.0145 979.509 13.8688 979.585 13.7636C980.557 12.416 983.146 11.6407 984.833 12.1921ZM1037.5 12.2273C1038.57 12.5572 1039.17 12.93 1039.92 13.7412C1043.74 17.8403 1040.16 24.6039 1034.85 23.3075C1033.97 23.0916 1033.65 22.918 1032.63 22.1024C1031.11 20.8845 1030.41 18.4465 1030.94 16.2538C1031.68 13.2404 1034.72 11.3742 1037.5 12.2273ZM1066.72 16.6748C1066.83 16.7994 1066.93 16.9657 1066.93 17.0452C1066.93 17.4202 1066.26 19.2067 1066.06 19.3751C1066.04 19.393 1065.84 19.6476 1065.62 19.9401C1065.41 20.2329 1065.14 20.547 1065.02 20.6384C1064.91 20.7302 1064.61 20.9731 1064.35 21.179C1063.66 21.7425 1063.01 22.0445 1061.76 22.4012C1060.22 22.8382 1057.77 22.3721 1056.44 21.3878C1055.52 20.7102 1054.44 19.5319 1054.3 19.0422C1054.27 18.9509 1054.16 18.6799 1054.04 18.4397C1053.5 17.2902 1053.59 16.6816 1054.3 16.6816C1054.65 16.6816 1054.79 16.8253 1054.96 17.3707C1055.04 17.6133 1055.19 17.9856 1055.31 18.1979C1055.42 18.4102 1055.52 18.6078 1055.52 18.6369C1055.52 18.8942 1056.81 20.1747 1057.35 20.4604C1060.66 22.1962 1064.49 20.8 1065.52 17.4796C1065.84 16.437 1066.24 16.1701 1066.72 16.6748Z" fill="white"/>
<path fill-rule="evenodd" clip-rule="evenodd" d="M969.092 2.68932C968.978 2.823 968.971 2.99817 968.955 6.54632C968.945 8.80002 968.914 10.2637 968.879 10.2637C968.847 10.2637 968.77 10.2074 968.708 10.1388C968.58 9.99511 967.912 9.55538 967.428 9.29521C966.145 8.60569 963.95 8.24378 962.403 8.46684C961.282 8.62804 959.329 9.36545 958.879 9.79679C958.81 9.86303 958.556 10.0518 958.314 10.2166C957.894 10.5031 956.465 11.9719 956.465 12.1168C956.465 12.1543 956.305 12.432 956.11 12.734C955.528 13.6362 955.269 14.3174 954.914 15.8836C954.636 17.1098 954.757 19.1157 955.212 20.8378C955.386 21.4943 956.212 23.1327 956.414 23.2212C956.442 23.2332 956.465 23.2744 956.465 23.3122C956.465 23.5457 957.598 24.7571 958.408 25.3895C960.599 27.0998 963.94 27.6102 966.471 26.621C967.15 26.3561 968.375 25.6924 968.682 25.4239L968.91 25.224L968.941 25.9853C968.969 26.6753 968.986 26.7627 969.124 26.9178L969.276 27.0895H970.669C971.947 27.0895 972.074 27.0791 972.21 26.9621L972.357 26.8353V15.5592C972.357 5.62297 972.347 4.27186 972.263 4.18687C972.212 4.1338 971.972 3.97977 971.731 3.84411C971.489 3.70844 971.235 3.54524 971.167 3.48099C970.362 2.73401 969.375 2.35733 969.092 2.68932ZM1021.77 2.67097C1021.68 2.77471 1021.67 2.96864 1021.67 3.98616C1021.67 5.34644 1021.66 5.33169 1022.18 5.68243C1022.36 5.80533 1022.57 5.95736 1022.63 6.0204C1022.7 6.08344 1022.91 6.22111 1023.1 6.32606C1023.29 6.431 1023.64 6.65685 1023.88 6.82763C1024.44 7.23584 1024.77 7.24781 1024.96 6.86714C1025.1 6.58462 1025.09 3.02929 1024.96 2.74559L1024.86 2.54926H1023.37C1022 2.54926 1021.86 2.55964 1021.77 2.67097ZM1058.81 2.59435C1057.92 2.71406 1056.42 3.19409 1055.66 3.59951C1055.46 3.70525 1055.22 3.81219 1055.13 3.83652C1054.93 3.8896 1053.73 4.73513 1053.11 5.26105C1052.3 5.95057 1050.99 7.48563 1050.69 8.09694C1050.48 8.5231 1050.18 9.06777 1050.13 9.0973C1050.05 9.14918 1049.46 10.6695 1049.31 11.195C1048.75 13.2209 1048.75 13.2112 1048.75 19.397V24.7559L1048.9 25.198C1048.98 25.4414 1049.12 25.7195 1049.2 25.8162C1049.28 25.9131 1049.4 26.0699 1049.45 26.1653C1049.6 26.4119 1050.21 26.8221 1050.64 26.9665C1051.16 27.1353 1060.5 27.1541 1061.6 26.9881C1063.37 26.7228 1065.55 25.8221 1066.77 24.8561C1066.98 24.692 1067.21 24.5325 1067.28 24.5013C1067.35 24.4698 1067.67 24.1789 1067.99 23.8549C1068.31 23.5305 1068.6 23.2552 1068.63 23.2428C1068.66 23.2304 1068.91 22.9324 1069.17 22.5804C1069.44 22.2285 1069.72 21.871 1069.79 21.7863C1069.86 21.7018 1070.03 21.4165 1070.16 21.1523C1070.29 20.8878 1070.43 20.6268 1070.47 20.5717C1070.52 20.5162 1070.7 20.1568 1070.87 19.7725C1072.13 16.8919 1072.18 12.9571 1070.97 10.0302C1070.78 9.55498 1070.58 9.12164 1070.54 9.06658C1070.49 9.01191 1070.35 8.75254 1070.23 8.49078C1069.76 7.50638 1068.18 5.65051 1067.21 4.94941C1067.04 4.82452 1066.76 4.61224 1066.59 4.47657C1064.82 3.08795 1061.36 2.25159 1058.81 2.59435ZM1061.19 7.17478C1062.56 7.55227 1063.65 8.72381 1064.01 10.1934C1064.18 10.8718 1064.15 15.1206 1063.98 15.7431C1063.84 16.247 1063.67 16.6305 1063.5 16.8595C1062.69 17.9122 1062.18 18.3184 1061.27 18.6085C1059.43 19.1967 1057.24 17.9453 1056.66 15.9697C1056.47 15.3377 1056.37 11.2712 1056.52 10.4568C1056.96 8.05703 1059.06 6.58462 1061.19 7.17478ZM982.702 8.37745C981.356 8.49557 979.223 9.29761 978.49 9.9616C978.358 10.0805 978.154 10.2309 978.035 10.2956C977.615 10.5246 976.357 11.9875 976.002 12.6578C974.961 14.6278 974.646 15.805 974.646 17.7251C974.646 25.787 983.646 30.0909 989.314 24.7395C991.248 22.9132 991.326 22.5078 989.808 22.1443C989.382 22.0426 988.773 21.8862 988.454 21.7976C987.592 21.5573 987.444 21.5728 987.048 21.946C985.177 23.7089 982.531 23.9216 980.508 22.4719C979.523 21.766 978.694 20.6946 978.44 19.8004L978.357 19.5079H985.115H991.873L992.076 19.3072L992.278 19.1065L992.243 17.761C992.223 16.9757 992.171 16.2355 992.117 15.9833C992.068 15.7455 991.981 15.3265 991.923 15.052C991.808 14.4994 991.279 13.2728 990.934 12.7576C990.811 12.5748 990.693 12.3653 990.672 12.292C990.598 12.0326 989.282 10.5932 988.846 10.294C988.673 10.1759 988.427 9.98952 988.298 9.87979C987.173 8.92492 984.536 8.21704 982.702 8.37745ZM1000.95 8.46883C1000.41 8.51911 999.504 8.74576 999.217 8.90297C999.119 8.95644 998.995 9.00034 998.941 9.00034C998.15 9.00034 996.153 11.0011 995.397 12.5505C994.475 14.4387 994.449 14.688 994.471 21.3925L994.488 26.7687L994.664 26.929C994.89 27.1353 997.399 27.1824 997.683 26.9857C997.935 26.8097 997.935 26.8093 997.968 20.9711L997.999 15.285L998.191 14.7822C998.297 14.5057 998.542 14.0568 998.735 13.7846C999.372 12.8849 999.318 12.9344 1000.22 12.434C1001.19 11.9009 1002.23 11.946 1003.17 12.5617C1003.42 12.7245 1003.64 12.8573 1003.67 12.8573C1003.9 12.8573 1004.82 14.315 1005.02 15.0101C1005.28 15.8748 1005.3 16.3396 1005.3 21.7066C1005.3 26.7383 1005.3 26.8002 1005.43 26.9438C1005.64 27.1816 1008.22 27.1688 1008.48 26.929L1008.66 26.7687L1008.69 21.193L1008.73 15.6174L1008.92 14.9857C1010.12 11.0685 1014.51 11.1399 1015.82 15.0983L1015.99 15.6174L1016.02 21.2437C1016.05 25.8768 1016.07 26.8891 1016.14 26.9797C1016.3 27.1808 1019.09 27.1413 1019.27 26.9354L1019.41 26.7818V21.1946C1019.41 14.8976 1019.42 15.0245 1018.94 13.5584C1018.53 12.2947 1017.57 10.7517 1016.9 10.2928C1016.78 10.2098 1016.56 10.0238 1016.41 9.88019C1015.23 8.74217 1012.57 8.13126 1010.86 8.6049C1009.39 9.0143 1008.43 9.58811 1007.42 10.6735L1006.94 11.1922L1006.67 10.8574C1005.35 9.20863 1003.09 8.26812 1000.95 8.46883ZM1022.06 8.44848C1021.64 8.53507 1021.67 7.80725 1021.67 17.8161V26.8137L1021.83 26.9518C1022 27.0903 1024.46 27.1712 1024.77 27.0479C1025.06 26.9287 1025.05 27.2076 1025.05 17.7789C1025.05 8.10611 1025.07 8.61487 1024.7 8.46524C1024.55 8.40379 1022.34 8.38983 1022.06 8.44848ZM1034.61 8.53108C1033.84 8.67633 1032.74 9.04343 1032.2 9.33393C1031.77 9.55858 1031.12 9.98035 1031.07 10.0633C1031.05 10.0893 1030.91 10.1942 1030.76 10.2956C1030.6 10.3973 1030.21 10.7684 1029.89 11.1204C1027.76 13.4367 1026.96 16.19 1027.44 19.5745C1027.77 21.928 1029.68 24.7471 1031.7 25.8808C1032.54 26.3512 1032.72 26.4374 1033.31 26.6557C1036.43 27.7921 1040.03 26.8807 1042.42 24.3533C1044.41 22.248 1045.41 18.6516 1044.78 15.8836C1044.42 14.321 1044.2 13.7072 1043.68 12.8909C1043.52 12.6346 1043.31 12.2907 1043.22 12.1259C1042.98 11.7026 1041.89 10.5721 1041.27 10.1216C1039.32 8.69069 1036.87 8.10452 1034.61 8.53108ZM1059.58 8.47282C1058.87 8.65199 1058.17 9.32355 1057.91 10.0889L1057.75 10.5629V12.8909C1057.75 15.1541 1057.75 15.2303 1057.89 15.6505C1058.62 17.8224 1061.59 18.0128 1062.56 15.9498C1062.85 15.3472 1062.86 15.1586 1062.84 12.7233L1062.82 10.4301L1062.63 9.9979C1062.08 8.77768 1060.84 8.15719 1059.58 8.47282ZM1060.7 11.288L1060.91 11.5142V13.2352C1060.91 14.7479 1060.9 14.9758 1060.81 15.1206C1060.54 15.5328 1060.2 15.5712 1059.87 15.2252L1059.66 14.9989V13.2563V11.5142L1059.87 11.288C1060.02 11.1252 1060.14 11.0617 1060.28 11.0617C1060.43 11.0617 1060.55 11.1252 1060.7 11.288ZM964.821 12.1882C968.641 13.23 970.202 17.8887 967.842 21.2038C967.396 21.8303 967.231 21.993 966.436 22.594C964.402 24.1306 961.233 23.6055 959.451 21.4364C956.096 17.3528 959.878 10.8398 964.821 12.1882ZM984.833 12.1921C986.455 12.7225 987.742 13.892 988.343 15.382L988.559 15.9167H983.454H978.35L978.435 15.6609C978.612 15.129 979.033 14.3788 979.317 14.0879C979.389 14.0145 979.509 13.8688 979.585 13.7636C980.557 12.416 983.146 11.6407 984.833 12.1921ZM1037.5 12.2273C1038.57 12.5572 1039.17 12.93 1039.92 13.7412C1043.74 17.8403 1040.16 24.6039 1034.85 23.3075C1033.97 23.0916 1033.65 22.918 1032.63 22.1024C1031.11 20.8845 1030.41 18.4465 1030.94 16.2538C1031.68 13.2404 1034.72 11.3742 1037.5 12.2273ZM1066.72 16.6748C1066.83 16.7994 1066.93 16.9657 1066.93 17.0452C1066.93 17.4202 1066.26 19.2067 1066.06 19.3751C1066.04 19.393 1065.84 19.6476 1065.62 19.9401C1065.41 20.2329 1065.14 20.547 1065.02 20.6384C1064.91 20.7302 1064.61 20.9731 1064.35 21.179C1063.66 21.7425 1063.01 22.0445 1061.76 22.4012C1060.22 22.8382 1057.77 22.3721 1056.44 21.3878C1055.52 20.7102 1054.44 19.5319 1054.3 19.0422C1054.27 18.9509 1054.16 18.6799 1054.04 18.4397C1053.5 17.2902 1053.59 16.6816 1054.3 16.6816C1054.65 16.6816 1054.79 16.8253 1054.96 17.3707C1055.04 17.6133 1055.19 17.9856 1055.31 18.1979C1055.42 18.4102 1055.52 18.6078 1055.52 18.6369C1055.52 18.8942 1056.81 20.1747 1057.35 20.4604C1060.66 22.1962 1064.49 20.8 1065.52 17.4796C1065.84 16.437 1066.24 16.1701 1066.72 16.6748Z" fill="white"/>
<path fill-rule="evenodd" clip-rule="evenodd" d="M969.092 2.68932C968.978 2.823 968.971 2.99817 968.955 6.54632C968.945 8.80002 968.914 10.2637 968.879 10.2637C968.847 10.2637 968.77 10.2074 968.708 10.1388C968.58 9.99511 967.912 9.55538 967.428 9.29521C966.145 8.60569 963.95 8.24378 962.403 8.46684C961.282 8.62804 959.329 9.36545 958.879 9.79679C958.81 9.86303 958.556 10.0518 958.314 10.2166C957.894 10.5031 956.465 11.9719 956.465 12.1168C956.465 12.1543 956.305 12.432 956.11 12.734C955.528 13.6362 955.269 14.3174 954.914 15.8836C954.636 17.1098 954.757 19.1157 955.212 20.8378C955.386 21.4943 956.212 23.1327 956.414 23.2212C956.442 23.2332 956.465 23.2744 956.465 23.3122C956.465 23.5457 957.598 24.7571 958.408 25.3895C960.599 27.0998 963.94 27.6102 966.471 26.621C967.15 26.3561 968.375 25.6924 968.682 25.4239L968.91 25.224L968.941 25.9853C968.969 26.6753 968.986 26.7627 969.124 26.9178L969.276 27.0895H970.669C971.947 27.0895 972.074 27.0791 972.21 26.9621L972.357 26.8353V15.5592C972.357 5.62297 972.347 4.27186 972.263 4.18687C972.212 4.1338 971.972 3.97977 971.731 3.84411C971.489 3.70844 971.235 3.54524 971.167 3.48099C970.362 2.73401 969.375 2.35733 969.092 2.68932ZM1021.77 2.67097C1021.68 2.77471 1021.67 2.96864 1021.67 3.98616C1021.67 5.34644 1021.66 5.33169 1022.18 5.68243C1022.36 5.80533 1022.57 5.95736 1022.63 6.0204C1022.7 6.08344 1022.91 6.22111 1023.1 6.32606C1023.29 6.431 1023.64 6.65685 1023.88 6.82763C1024.44 7.23584 1024.77 7.24781 1024.96 6.86714C1025.1 6.58462 1025.09 3.02929 1024.96 2.74559L1024.86 2.54926H1023.37C1022 2.54926 1021.86 2.55964 1021.77 2.67097ZM1058.81 2.59435C1057.92 2.71406 1056.42 3.19409 1055.66 3.59951C1055.46 3.70525 1055.22 3.81219 1055.13 3.83652C1054.93 3.8896 1053.73 4.73513 1053.11 5.26105C1052.3 5.95057 1050.99 7.48563 1050.69 8.09694C1050.48 8.5231 1050.18 9.06777 1050.13 9.0973C1050.05 9.14918 1049.46 10.6695 1049.31 11.195C1048.75 13.2209 1048.75 13.2112 1048.75 19.397V24.7559L1048.9 25.198C1048.98 25.4414 1049.12 25.7195 1049.2 25.8162C1049.28 25.9131 1049.4 26.0699 1049.45 26.1653C1049.6 26.4119 1050.21 26.8221 1050.64 26.9665C1051.16 27.1353 1060.5 27.1541 1061.6 26.9881C1063.37 26.7228 1065.55 25.8221 1066.77 24.8561C1066.98 24.692 1067.21 24.5325 1067.28 24.5013C1067.35 24.4698 1067.67 24.1789 1067.99 23.8549C1068.31 23.5305 1068.6 23.2552 1068.63 23.2428C1068.66 23.2304 1068.91 22.9324 1069.17 22.5804C1069.44 22.2285 1069.72 21.871 1069.79 21.7863C1069.86 21.7018 1070.03 21.4165 1070.16 21.1523C1070.29 20.8878 1070.43 20.6268 1070.47 20.5717C1070.52 20.5162 1070.7 20.1568 1070.87 19.7725C1072.13 16.8919 1072.18 12.9571 1070.97 10.0302C1070.78 9.55498 1070.58 9.12164 1070.54 9.06658C1070.49 9.01191 1070.35 8.75254 1070.23 8.49078C1069.76 7.50638 1068.18 5.65051 1067.21 4.94941C1067.04 4.82452 1066.76 4.61224 1066.59 4.47657C1064.82 3.08795 1061.36 2.25159 1058.81 2.59435ZM1061.19 7.17478C1062.56 7.55227 1063.65 8.72381 1064.01 10.1934C1064.18 10.8718 1064.15 15.1206 1063.98 15.7431C1063.84 16.247 1063.67 16.6305 1063.5 16.8595C1062.69 17.9122 1062.18 18.3184 1061.27 18.6085C1059.43 19.1967 1057.24 17.9453 1056.66 15.9697C1056.47 15.3377 1056.37 11.2712 1056.52 10.4568C1056.96 8.05703 1059.06 6.58462 1061.19 7.17478ZM982.702 8.37745C981.356 8.49557 979.223 9.29761 978.49 9.9616C978.358 10.0805 978.154 10.2309 978.035 10.2956C977.615 10.5246 976.357 11.9875 976.002 12.6578C974.961 14.6278 974.646 15.805 974.646 17.7251C974.646 25.787 983.646 30.0909 989.314 24.7395C991.248 22.9132 991.326 22.5078 989.808 22.1443C989.382 22.0426 988.773 21.8862 988.454 21.7976C987.592 21.5573 987.444 21.5728 987.048 21.946C985.177 23.7089 982.531 23.9216 980.508 22.4719C979.523 21.766 978.694 20.6946 978.44 19.8004L978.357 19.5079H985.115H991.873L992.076 19.3072L992.278 19.1065L992.243 17.761C992.223 16.9757 992.171 16.2355 992.117 15.9833C992.068 15.7455 991.981 15.3265 991.923 15.052C991.808 14.4994 991.279 13.2728 990.934 12.7576C990.811 12.5748 990.693 12.3653 990.672 12.292C990.598 12.0326 989.282 10.5932 988.846 10.294C988.673 10.1759 988.427 9.98952 988.298 9.87979C987.173 8.92492 984.536 8.21704 982.702 8.37745ZM1000.95 8.46883C1000.41 8.51911 999.504 8.74576 999.217 8.90297C999.119 8.95644 998.995 9.00034 998.941 9.00034C998.15 9.00034 996.153 11.0011 995.397 12.5505C994.475 14.4387 994.449 14.688 994.471 21.3925L994.488 26.7687L994.664 26.929C994.89 27.1353 997.399 27.1824 997.683 26.9857C997.935 26.8097 997.935 26.8093 997.968 20.9711L997.999 15.285L998.191 14.7822C998.297 14.5057 998.542 14.0568 998.735 13.7846C999.372 12.8849 999.318 12.9344 1000.22 12.434C1001.19 11.9009 1002.23 11.946 1003.17 12.5617C1003.42 12.7245 1003.64 12.8573 1003.67 12.8573C1003.9 12.8573 1004.82 14.315 1005.02 15.0101C1005.28 15.8748 1005.3 16.3396 1005.3 21.7066C1005.3 26.7383 1005.3 26.8002 1005.43 26.9438C1005.64 27.1816 1008.22 27.1688 1008.48 26.929L1008.66 26.7687L1008.69 21.193L1008.73 15.6174L1008.92 14.9857C1010.12 11.0685 1014.51 11.1399 1015.82 15.0983L1015.99 15.6174L1016.02 21.2437C1016.05 25.8768 1016.07 26.8891 1016.14 26.9797C1016.3 27.1808 1019.09 27.1413 1019.27 26.9354L1019.41 26.7818V21.1946C1019.41 14.8976 1019.42 15.0245 1018.94 13.5584C1018.53 12.2947 1017.57 10.7517 1016.9 10.2928C1016.78 10.2098 1016.56 10.0238 1016.41 9.88019C1015.23 8.74217 1012.57 8.13126 1010.86 8.6049C1009.39 9.0143 1008.43 9.58811 1007.42 10.6735L1006.94 11.1922L1006.67 10.8574C1005.35 9.20863 1003.09 8.26812 1000.95 8.46883ZM1022.06 8.44848C1021.64 8.53507 1021.67 7.80725 1021.67 17.8161V26.8137L1021.83 26.9518C1022 27.0903 1024.46 27.1712 1024.77 27.0479C1025.06 26.9287 1025.05 27.2076 1025.05 17.7789C1025.05 8.10611 1025.07 8.61487 1024.7 8.46524C1024.55 8.40379 1022.34 8.38983 1022.06 8.44848ZM1034.61 8.53108C1033.84 8.67633 1032.74 9.04343 1032.2 9.33393C1031.77 9.55858 1031.12 9.98035 1031.07 10.0633C1031.05 10.0893 1030.91 10.1942 1030.76 10.2956C1030.6 10.3973 1030.21 10.7684 1029.89 11.1204C1027.76 13.4367 1026.96 16.19 1027.44 19.5745C1027.77 21.928 1029.68 24.7471 1031.7 25.8808C1032.54 26.3512 1032.72 26.4374 1033.31 26.6557C1036.43 27.7921 1040.03 26.8807 1042.42 24.3533C1044.41 22.248 1045.41 18.6516 1044.78 15.8836C1044.42 14.321 1044.2 13.7072 1043.68 12.8909C1043.52 12.6346 1043.31 12.2907 1043.22 12.1259C1042.98 11.7026 1041.89 10.5721 1041.27 10.1216C1039.32 8.69069 1036.87 8.10452 1034.61 8.53108ZM1059.58 8.47282C1058.87 8.65199 1058.17 9.32355 1057.91 10.0889L1057.75 10.5629V12.8909C1057.75 15.1541 1057.75 15.2303 1057.89 15.6505C1058.62 17.8224 1061.59 18.0128 1062.56 15.9498C1062.85 15.3472 1062.86 15.1586 1062.84 12.7233L1062.82 10.4301L1062.63 9.9979C1062.08 8.77768 1060.84 8.15719 1059.58 8.47282ZM1060.7 11.288L1060.91 11.5142V13.2352C1060.91 14.7479 1060.9 14.9758 1060.81 15.1206C1060.54 15.5328 1060.2 15.5712 1059.87 15.2252L1059.66 14.9989V13.2563V11.5142L1059.87 11.288C1060.02 11.1252 1060.14 11.0617 1060.28 11.0617C1060.43 11.0617 1060.55 11.1252 1060.7 11.288ZM964.821 12.1882C968.641 13.23 970.202 17.8887 967.842 21.2038C967.396 21.8303 967.231 21.993 966.436 22.594C964.402 24.1306 961.233 23.6055 959.451 21.4364C956.096 17.3528 959.878 10.8398 964.821 12.1882ZM984.833 12.1921C986.455 12.7225 987.742 13.892 988.343 15.382L988.559 15.9167H983.454H978.35L978.435 15.6609C978.612 15.129 979.033 14.3788 979.317 14.0879C979.389 14.0145 979.509 13.8688 979.585 13.7636C980.557 12.416 983.146 11.6407 984.833 12.1921ZM1037.5 12.2273C1038.57 12.5572 1039.17 12.93 1039.92 13.7412C1043.74 17.8403 1040.16 24.6039 1034.85 23.3075C1033.97 23.0916 1033.65 22.918 1032.63 22.1024C1031.11 20.8845 1030.41 18.4465 1030.94 16.2538C1031.68 13.2404 1034.72 11.3742 1037.5 12.2273ZM1066.72 16.6748C1066.83 16.7994 1066.93 16.9657 1066.93 17.0452C1066.93 17.4202 1066.26 19.2067 1066.06 19.3751C1066.04 19.393 1065.84 19.6476 1065.62 19.9401C1065.41 20.2329 1065.14 20.547 1065.02 20.6384C1064.91 20.7302 1064.61 20.9731 1064.35 21.179C1063.66 21.7425 1063.01 22.0445 1061.76 22.4012C1060.22 22.8382 1057.77 22.3721 1056.44 21.3878C1055.52 20.7102 1054.44 19.5319 1054.3 19.0422C1054.27 18.9509 1054.16 18.6799 1054.04 18.4397C1053.5 17.2902 1053.59 16.6816 1054.3 16.6816C1054.65 16.6816 1054.79 16.8253 1054.96 17.3707C1055.04 17.6133 1055.19 17.9856 1055.31 18.1979C1055.42 18.4102 1055.52 18.6078 1055.52 18.6369C1055.52 18.8942 1056.81 20.1747 1057.35 20.4604C1060.66 22.1962 1064.49 20.8 1065.52 17.4796C1065.84 16.437 1066.24 16.1701 1066.72 16.6748Z" fill="white"/>
<path fill-rule="evenodd" clip-rule="evenodd" d="M969.092 2.68932C968.978 2.823 968.971 2.99817 968.955 6.54632C968.945 8.80002 968.914 10.2637 968.879 10.2637C968.847 10.2637 968.77 10.2074 968.708 10.1388C968.58 9.99511 967.912 9.55538 967.428 9.29521C966.145 8.60569 963.95 8.24378 962.403 8.46684C961.282 8.62804 959.329 9.36545 958.879 9.79679C958.81 9.86303 958.556 10.0518 958.314 10.2166C957.894 10.5031 956.465 11.9719 956.465 12.1168C956.465 12.1543 956.305 12.432 956.11 12.734C955.528 13.6362 955.269 14.3174 954.914 15.8836C954.636 17.1098 954.757 19.1157 955.212 20.8378C955.386 21.4943 956.212 23.1327 956.414 23.2212C956.442 23.2332 956.465 23.2744 956.465 23.3122C956.465 23.5457 957.598 24.7571 958.408 25.3895C960.599 27.0998 963.94 27.6102 966.471 26.621C967.15 26.3561 968.375 25.6924 968.682 25.4239L968.91 25.224L968.941 25.9853C968.969 26.6753 968.986 26.7627 969.124 26.9178L969.276 27.0895H970.669C971.947 27.0895 972.074 27.0791 972.21 26.9621L972.357 26.8353V15.5592C972.357 5.62297 972.347 4.27186 972.263 4.18687C972.212 4.1338 971.972 3.97977 971.731 3.84411C971.489 3.70844 971.235 3.54524 971.167 3.48099C970.362 2.73401 969.375 2.35733 969.092 2.68932ZM1021.77 2.67097C1021.68 2.77471 1021.67 2.96864 1021.67 3.98616C1021.67 5.34644 1021.66 5.33169 1022.18 5.68243C1022.36 5.80533 1022.57 5.95736 1022.63 6.0204C1022.7 6.08344 1022.91 6.22111 1023.1 6.32606C1023.29 6.431 1023.64 6.65685 1023.88 6.82763C1024.44 7.23584 1024.77 7.24781 1024.96 6.86714C1025.1 6.58462 1025.09 3.02929 1024.96 2.74559L1024.86 2.54926H1023.37C1022 2.54926 1021.86 2.55964 1021.77 2.67097ZM1058.81 2.59435C1057.92 2.71406 1056.42 3.19409 1055.66 3.59951C1055.46 3.70525 1055.22 3.81219 1055.13 3.83652C1054.93 3.8896 1053.73 4.73513 1053.11 5.26105C1052.3 5.95057 1050.99 7.48563 1050.69 8.09694C1050.48 8.5231 1050.18 9.06777 1050.13 9.0973C1050.05 9.14918 1049.46 10.6695 1049.31 11.195C1048.75 13.2209 1048.75 13.2112 1048.75 19.397V24.7559L1048.9 25.198C1048.98 25.4414 1049.12 25.7195 1049.2 25.8162C1049.28 25.9131 1049.4 26.0699 1049.45 26.1653C1049.6 26.4119 1050.21 26.8221 1050.64 26.9665C1051.16 27.1353 1060.5 27.1541 1061.6 26.9881C1063.37 26.7228 1065.55 25.8221 1066.77 24.8561C1066.98 24.692 1067.21 24.5325 1067.28 24.5013C1067.35 24.4698 1067.67 24.1789 1067.99 23.8549C1068.31 23.5305 1068.6 23.2552 1068.63 23.2428C1068.66 23.2304 1068.91 22.9324 1069.17 22.5804C1069.44 22.2285 1069.72 21.871 1069.79 21.7863C1069.86 21.7018 1070.03 21.4165 1070.16 21.1523C1070.29 20.8878 1070.43 20.6268 1070.47 20.5717C1070.52 20.5162 1070.7 20.1568 1070.87 19.7725C1072.13 16.8919 1072.18 12.9571 1070.97 10.0302C1070.78 9.55498 1070.58 9.12164 1070.54 9.06658C1070.49 9.01191 1070.35 8.75254 1070.23 8.49078C1069.76 7.50638 1068.18 5.65051 1067.21 4.94941C1067.04 4.82452 1066.76 4.61224 1066.59 4.47657C1064.82 3.08795 1061.36 2.25159 1058.81 2.59435ZM1061.19 7.17478C1062.56 7.55227 1063.65 8.72381 1064.01 10.1934C1064.18 10.8718 1064.15 15.1206 1063.98 15.7431C1063.84 16.247 1063.67 16.6305 1063.5 16.8595C1062.69 17.9122 1062.18 18.3184 1061.27 18.6085C1059.43 19.1967 1057.24 17.9453 1056.66 15.9697C1056.47 15.3377 1056.37 11.2712 1056.52 10.4568C1056.96 8.05703 1059.06 6.58462 1061.19 7.17478ZM982.702 8.37745C981.356 8.49557 979.223 9.29761 978.49 9.9616C978.358 10.0805 978.154 10.2309 978.035 10.2956C977.615 10.5246 976.357 11.9875 976.002 12.6578C974.961 14.6278 974.646 15.805 974.646 17.7251C974.646 25.787 983.646 30.0909 989.314 24.7395C991.248 22.9132 991.326 22.5078 989.808 22.1443C989.382 22.0426 988.773 21.8862 988.454 21.7976C987.592 21.5573 987.444 21.5728 987.048 21.946C985.177 23.7089 982.531 23.9216 980.508 22.4719C979.523 21.766 978.694 20.6946 978.44 19.8004L978.357 19.5079H985.115H991.873L992.076 19.3072L992.278 19.1065L992.243 17.761C992.223 16.9757 992.171 16.2355 992.117 15.9833C992.068 15.7455 991.981 15.3265 991.923 15.052C991.808 14.4994 991.279 13.2728 990.934 12.7576C990.811 12.5748 990.693 12.3653 990.672 12.292C990.598 12.0326 989.282 10.5932 988.846 10.294C988.673 10.1759 988.427 9.98952 988.298 9.87979C987.173 8.92492 984.536 8.21704 982.702 8.37745ZM1000.95 8.46883C1000.41 8.51911 999.504 8.74576 999.217 8.90297C999.119 8.95644 998.995 9.00034 998.941 9.00034C998.15 9.00034 996.153 11.0011 995.397 12.5505C994.475 14.4387 994.449 14.688 994.471 21.3925L994.488 26.7687L994.664 26.929C994.89 27.1353 997.399 27.1824 997.683 26.9857C997.935 26.8097 997.935 26.8093 997.968 20.9711L997.999 15.285L998.191 14.7822C998.297 14.5057 998.542 14.0568 998.735 13.7846C999.372 12.8849 999.318 12.9344 1000.22 12.434C1001.19 11.9009 1002.23 11.946 1003.17 12.5617C1003.42 12.7245 1003.64 12.8573 1003.67 12.8573C1003.9 12.8573 1004.82 14.315 1005.02 15.0101C1005.28 15.8748 1005.3 16.3396 1005.3 21.7066C1005.3 26.7383 1005.3 26.8002 1005.43 26.9438C1005.64 27.1816 1008.22 27.1688 1008.48 26.929L1008.66 26.7687L1008.69 21.193L1008.73 15.6174L1008.92 14.9857C1010.12 11.0685 1014.51 11.1399 1015.82 15.0983L1015.99 15.6174L1016.02 21.2437C1016.05 25.8768 1016.07 26.8891 1016.14 26.9797C1016.3 27.1808 1019.09 27.1413 1019.27 26.9354L1019.41 26.7818V21.1946C1019.41 14.8976 1019.42 15.0245 1018.94 13.5584C1018.53 12.2947 1017.57 10.7517 1016.9 10.2928C1016.78 10.2098 1016.56 10.0238 1016.41 9.88019C1015.23 8.74217 1012.57 8.13126 1010.86 8.6049C1009.39 9.0143 1008.43 9.58811 1007.42 10.6735L1006.94 11.1922L1006.67 10.8574C1005.35 9.20863 1003.09 8.26812 1000.95 8.46883ZM1022.06 8.44848C1021.64 8.53507 1021.67 7.80725 1021.67 17.8161V26.8137L1021.83 26.9518C1022 27.0903 1024.46 27.1712 1024.77 27.0479C1025.06 26.9287 1025.05 27.2076 1025.05 17.7789C1025.05 8.10611 1025.07 8.61487 1024.7 8.46524C1024.55 8.40379 1022.34 8.38983 1022.06 8.44848ZM1034.61 8.53108C1033.84 8.67633 1032.74 9.04343 1032.2 9.33393C1031.77 9.55858 1031.12 9.98035 1031.07 10.0633C1031.05 10.0893 1030.91 10.1942 1030.76 10.2956C1030.6 10.3973 1030.21 10.7684 1029.89 11.1204C1027.76 13.4367 1026.96 16.19 1027.44 19.5745C1027.77 21.928 1029.68 24.7471 1031.7 25.8808C1032.54 26.3512 1032.72 26.4374 1033.31 26.6557C1036.43 27.7921 1040.03 26.8807 1042.42 24.3533C1044.41 22.248 1045.41 18.6516 1044.78 15.8836C1044.42 14.321 1044.2 13.7072 1043.68 12.8909C1043.52 12.6346 1043.31 12.2907 1043.22 12.1259C1042.98 11.7026 1041.89 10.5721 1041.27 10.1216C1039.32 8.69069 1036.87 8.10452 1034.61 8.53108ZM1059.58 8.47282C1058.87 8.65199 1058.17 9.32355 1057.91 10.0889L1057.75 10.5629V12.8909C1057.75 15.1541 1057.75 15.2303 1057.89 15.6505C1058.62 17.8224 1061.59 18.0128 1062.56 15.9498C1062.85 15.3472 1062.86 15.1586 1062.84 12.7233L1062.82 10.4301L1062.63 9.9979C1062.08 8.77768 1060.84 8.15719 1059.58 8.47282ZM1060.7 11.288L1060.91 11.5142V13.2352C1060.91 14.7479 1060.9 14.9758 1060.81 15.1206C1060.54 15.5328 1060.2 15.5712 1059.87 15.2252L1059.66 14.9989V13.2563V11.5142L1059.87 11.288C1060.02 11.1252 1060.14 11.0617 1060.28 11.0617C1060.43 11.0617 1060.55 11.1252 1060.7 11.288ZM964.821 12.1882C968.641 13.23 970.202 17.8887 967.842 21.2038C967.396 21.8303 967.231 21.993 966.436 22.594C964.402 24.1306 961.233 23.6055 959.451 21.4364C956.096 17.3528 959.878 10.8398 964.821 12.1882ZM984.833 12.1921C986.455 12.7225 987.742 13.892 988.343 15.382L988.559 15.9167H983.454H978.35L978.435 15.6609C978.612 15.129 979.033 14.3788 979.317 14.0879C979.389 14.0145 979.509 13.8688 979.585 13.7636C980.557 12.416 983.146 11.6407 984.833 12.1921ZM1037.5 12.2273C1038.57 12.5572 1039.17 12.93 1039.92 13.7412C1043.74 17.8403 1040.16 24.6039 1034.85 23.3075C1033.97 23.0916 1033.65 22.918 1032.63 22.1024C1031.11 20.8845 1030.41 18.4465 1030.94 16.2538C1031.68 13.2404 1034.72 11.3742 1037.5 12.2273ZM1066.72 16.6748C1066.83 16.7994 1066.93 16.9657 1066.93 17.0452C1066.93 17.4202 1066.26 19.2067 1066.06 19.3751C1066.04 19.393 1065.84 19.6476 1065.62 19.9401C1065.41 20.2329 1065.14 20.547 1065.02 20.6384C1064.91 20.7302 1064.61 20.9731 1064.35 21.179C1063.66 21.7425 1063.01 22.0445 1061.76 22.4012C1060.22 22.8382 1057.77 22.3721 1056.44 21.3878C1055.52 20.7102 1054.44 19.5319 1054.3 19.0422C1054.27 18.9509 1054.16 18.6799 1054.04 18.4397C1053.5 17.2902 1053.59 16.6816 1054.3 16.6816C1054.65 16.6816 1054.79 16.8253 1054.96 17.3707C1055.04 17.6133 1055.19 17.9856 1055.31 18.1979C1055.42 18.4102 1055.52 18.6078 1055.52 18.6369C1055.52 18.8942 1056.81 20.1747 1057.35 20.4604C1060.66 22.1962 1064.49 20.8 1065.52 17.4796C1065.84 16.437 1066.24 16.1701 1066.72 16.6748Z" fill="white"/>
</g>
</g>
<defs>
<clipPath id="clip0_636_17059">
<rect width="117.188" height="25" fill="white" transform="translate(98.0469 2.51758)"/>
</clipPath>
<clipPath id="clip1_636_17059">
<rect width="117.188" height="25" fill="white" transform="translate(289.234 2.51758)"/>
</clipPath>
<clipPath id="clip2_636_17059">
<rect width="92.1875" height="25" fill="white" transform="translate(480.422 2.51758)"/>
</clipPath>
<clipPath id="clip3_636_17059">
<rect width="104.688" height="25" fill="white" transform="translate(646.609 2.51758)"/>
</clipPath>
<clipPath id="clip4_636_17059">
<rect width="55.4688" height="25" fill="white" transform="translate(825.297 2.51758)"/>
</clipPath>
<clipPath id="clip5_636_17059">
<rect width="117.188" height="25" fill="white" transform="translate(954.766 2.51758)"/>
</clipPath>
</defs>
</svg>
